<svg width="448" height="388" viewBox="0 0 448 388" fill="none" xmlns="http://www.w3.org/2000/svg">
<path d="M64.1207 354.435C149.615 398.145 288.228 398.146 373.719 354.436C459.213 310.724 459.213 239.856 373.719 196.146C288.227 152.435 149.614 152.435 64.1197 196.145C-21.3734 239.855 -21.3734 310.724 64.1207 354.435Z" fill="#F5F5F5"/>
<path d="M343.723 284.605C348.408 287.309 357.617 286.379 364.291 282.525L402.757 260.185C409.432 256.331 411.035 251.011 406.34 248.3C401.644 245.589 392.429 246.518 385.757 250.373L347.32 272.725C340.648 276.581 339.038 281.9 343.723 284.605Z" fill="#EBEBEB"/>
<path d="M112.144 305.207L73.0168 282.617L112.144 260.027V305.207Z" fill="#EBEBEB"/>
<path d="M222.73 318.722L159.667 282.289L222.745 245.927L222.73 318.722Z" fill="#EBEBEB"/>
<path d="M59.2146 252.389C59.3244 243.238 52.9334 224.201 43.5795 212.204C34.2256 200.207 19.3986 191.34 8.74825 194.84C-1.17009 198.101 -0.255986 211.073 11.6264 219.805C23.5087 228.537 41.3949 239.541 46.4865 254.45L57.3267 272.796L59.2146 252.389Z" fill="#0068C9"/>
<g opacity="0.100006">
<g opacity="0.100006">
<path opacity="0.100006" d="M59.2146 252.389C59.3244 243.238 52.9334 224.201 43.5795 212.204C34.2256 200.207 19.3986 191.34 8.74825 194.84C-1.17009 198.101 -0.255986 211.073 11.6264 219.805C23.5087 228.537 41.3949 239.541 46.4865 254.45L57.3267 272.796L59.2146 252.389Z" fill="black"/>
</g>
</g>
<path d="M59.7395 264.921C59.4477 264.894 59.1982 264.676 59.1433 264.375C53.3909 233.061 28.4241 207.365 13.365 201.572C13.0211 201.44 12.8477 201.053 12.9807 200.708C13.1117 200.365 13.4912 200.185 13.8447 200.324C29.1908 206.226 54.619 232.345 60.4591 264.134C60.5255 264.497 60.2847 264.844 59.9226 264.912C59.8599 264.923 59.7993 264.925 59.7395 264.921Z" fill="white"/>
<path d="M54.8401 284.861C53.4318 279.699 47.2499 271.134 37.1716 264C26.0223 256.107 11.8368 252.369 8.63025 246.292C4.77734 238.991 10.9728 232.211 22.5046 233.782C34.0353 235.353 54.1514 251.355 57.1114 275.116L54.8401 284.861Z" fill="#0068C9"/>
<path d="M57.1396 279.49C56.8863 279.467 56.658 279.298 56.5684 279.041C47.3099 252.162 27.0032 242.523 17.5607 241.181C17.1956 241.13 16.9413 240.791 16.9924 240.425C17.0444 240.058 17.368 239.804 17.7485 239.857C28.1908 241.34 48.3829 251.17 57.8341 278.606C57.9536 278.954 57.7677 279.336 57.419 279.455C57.3265 279.488 57.2311 279.499 57.1396 279.49Z" fill="white"/>
<path d="M400.74 226.341C400.74 226.341 402.024 207.045 413.395 192.723C424.765 178.4 424.066 172.501 416.226 169.61C408.386 166.72 390.175 183.981 394.227 207.096C398.28 230.213 400.74 226.341 400.74 226.341Z" fill="#0068C9"/>
<g opacity="0.100006">
<g opacity="0.100006">
<path opacity="0.100006" d="M400.74 226.341C400.74 226.341 402.024 207.045 413.395 192.723C424.765 178.4 424.066 172.501 416.226 169.61C408.386 166.72 390.175 183.981 394.227 207.096C398.28 230.213 400.74 226.341 400.74 226.341Z" fill="black"/>
</g>
</g>
<path d="M397.267 215.32C397.031 215.32 396.834 215.137 396.819 214.9C395.49 193.652 410.496 176.218 416.113 172.273C416.313 172.13 416.595 172.179 416.737 172.382C416.88 172.584 416.832 172.862 416.628 173.006C411.122 176.874 396.408 193.977 397.714 214.844C397.729 215.09 397.541 215.302 397.294 215.319C397.285 215.32 397.275 215.32 397.267 215.32Z" fill="white"/>
<path d="M397.649 242.274C397.649 242.274 404.501 244.648 413.306 246.043C422.111 247.437 425.997 243.226 425.997 243.226C425.997 243.226 422.53 234.968 417.53 232.65C417.53 232.65 426.007 234.378 432.811 238.919C432.811 238.919 438.188 239.001 440.328 230.794C440.328 230.794 437.142 225.856 426.454 223.188C426.454 223.188 432.957 221.552 442.328 223.942C443.03 224.221 446.026 213.611 446.931 208.716C447.837 203.822 445.871 203.873 442.054 202.854C438.238 201.836 425.6 198.996 423.21 201.095C420.821 203.194 419.607 210.37 419.607 210.37C419.607 210.37 418.033 206.136 419.249 201.275C419.249 201.275 415.814 199.932 410.486 201.483C406.127 202.751 405.914 205.717 406.112 209.069C406.256 211.52 406.846 214.131 407.999 217.581C407.999 217.581 404.6 213.225 404.495 203.783C404.495 203.783 395.576 208.214 394.052 217.068C393.228 221.853 392.061 235.914 397.649 242.274Z" fill="#0068C9"/>
<path d="M399.331 240.552C399.514 240.552 399.692 240.449 399.777 240.272C406.882 225.51 433.3 208.357 442.761 206.516C443.029 206.464 443.205 206.204 443.153 205.936C443.1 205.667 442.838 205.494 442.573 205.544C432.954 207.415 406.103 224.845 398.886 239.842C398.766 240.089 398.87 240.384 399.116 240.503C399.186 240.537 399.258 240.552 399.331 240.552Z" fill="white"/>
<path d="M55.7664 291.686C54.6741 291.686 54.021 290.784 54.021 289.272V127.249L252.441 12.6916L252.442 174.063C252.442 176.539 250.696 179.561 248.552 180.8L57.347 291.192C56.7874 291.516 56.2403 291.686 55.7664 291.686Z" fill="white"/>
<path d="M253.004 11.7156L53.458 126.923V289.272C53.458 291.158 54.3981 292.25 55.7659 292.25C56.3265 292.25 56.9593 292.067 57.6288 291.68L248.834 181.287C251.138 179.958 253.005 176.723 253.005 174.063L253.004 11.7156ZM251.877 13.6671L251.878 174.063C251.878 176.321 250.226 179.182 248.271 180.311L57.0653 290.705C56.5914 290.978 56.1416 291.123 55.7659 291.123C54.6996 291.123 54.585 289.828 54.585 289.272V127.574L251.877 13.6671Z" fill="#C8C8C8"/>
<path d="M53.458 126.924V154.033L253.002 38.826L253.004 11.716L53.458 126.924Z" fill="#0068C9"/>
<path d="M69.1075 128.37V132.258C69.1075 133.053 69.671 133.377 70.3597 132.98L131.711 97.5597L131.71 90.7825L70.3588 126.203C69.6701 126.601 69.1075 127.576 69.1075 128.37Z" fill="white"/>
<path d="M138.284 86.9865C138.976 86.5867 139.536 86.9104 139.536 87.7089V91.5965C139.536 92.394 138.976 93.365 138.284 93.7637L131.71 97.5598L131.709 90.7826L138.284 86.9865Z" fill="#383838"/>
<path d="M53.458 118.186C53.458 115.526 55.3247 112.292 57.6288 110.961L248.832 0.569817C251.136 -0.760399 253.004 0.317451 253.004 2.97788V11.7153L53.458 126.924V118.186Z" fill="#383838"/>
<path d="M230.826 15.5022C229.746 16.1264 228.87 17.6435 228.87 18.8908C228.87 20.1382 229.746 20.6449 230.826 20.0207C231.907 19.3965 232.782 17.8804 232.782 16.6321C232.782 15.3837 231.907 14.879 230.826 15.5022Z" fill="#0068C9"/>
<path d="M237.024 11.9188C235.943 12.543 235.068 14.06 235.068 15.3084C235.068 16.5558 235.943 17.0615 237.024 16.4373C238.104 15.8141 238.98 14.297 238.98 13.0486C238.98 11.8003 238.104 11.2956 237.024 11.9188Z" fill="#0068C9"/>
<path d="M243.222 8.33588C242.141 8.95908 241.266 10.4771 241.266 11.7245C241.266 12.9719 242.141 13.4776 243.222 12.8544C244.302 12.2302 245.178 10.7131 245.178 9.46574C245.178 8.2174 244.302 7.71171 243.222 8.33588Z" fill="#0068C9"/>
<g opacity="0.100006">
<g opacity="0.100006">
<path opacity="0.100006" d="M190.4 56.477C188.038 57.8409 186.125 61.1573 186.125 63.8842C186.125 66.612 188.038 67.7178 190.4 66.3539C192.762 64.9909 194.677 61.6745 194.677 58.9467C194.677 56.2188 192.762 55.113 190.4 56.477Z" fill="black"/>
</g>
<g opacity="0.100006">
<path opacity="0.100006" d="M170.837 67.7719C168.475 69.1358 166.562 72.4522 166.562 75.1791C166.562 77.9069 168.475 79.0127 170.837 77.6488C173.199 76.2858 175.113 72.9694 175.113 70.2416C175.113 67.5137 173.199 66.4079 170.837 67.7719Z" fill="black"/>
</g>
<g opacity="0.100006">
<path opacity="0.100006" d="M209.964 45.1816C207.602 46.5456 205.687 49.862 205.687 52.5889C205.687 55.3167 207.602 56.4225 209.964 55.0595C212.326 53.6956 214.24 50.3792 214.24 47.6514C214.24 44.9235 212.326 43.8177 209.964 45.1816Z" fill="black"/>
</g>
<g opacity="0.100006">
<path opacity="0.100006" d="M229.527 33.8652C227.166 35.2291 225.252 38.5455 225.252 41.2724C225.252 44.0002 227.166 45.106 229.527 43.7421C231.889 42.3791 233.803 39.0627 233.803 36.3349C233.803 33.607 231.889 32.5012 229.527 33.8652Z" fill="black"/>
</g>
</g>
<path d="M73.279 156.144L119.714 129.334C122.018 128.004 123.885 129.082 123.885 131.742V176.325C123.885 178.985 122.018 182.219 119.714 183.549L73.28 210.36C70.9769 211.69 69.1092 210.611 69.1092 207.952L69.1083 163.368C69.1083 160.707 70.975 157.474 73.279 156.144Z" fill="#C8C8C8"/>
<path d="M139.798 117.741L237.095 61.5633C239.398 60.2331 241.265 61.3119 241.265 63.9714V108.554C241.265 111.215 239.399 114.449 237.095 115.779L139.799 171.957C137.495 173.287 135.628 172.208 135.628 169.549L135.627 124.965C135.627 122.304 137.494 119.07 139.798 117.741Z" fill="#C8C8C8"/>
<path d="M73.2794 223.913L147.103 181.29C149.406 179.961 151.274 180.906 151.275 183.4C151.275 185.895 149.407 188.996 147.104 190.326L73.2794 232.949C70.9754 234.278 69.1086 233.334 69.1086 230.838C69.1086 228.344 70.9754 225.243 73.2794 223.913Z" fill="#C8C8C8"/>
<path d="M73.2794 239.723L147.103 197.101C149.406 195.771 151.274 196.716 151.275 199.211C151.275 201.706 149.407 204.806 147.104 206.137L73.2794 248.759C70.9754 250.09 69.1086 249.145 69.1086 246.649C69.1086 244.154 70.9754 241.054 73.2794 239.723Z" fill="#C8C8C8"/>
<path d="M73.2794 255.534L147.103 212.911C149.406 211.582 151.274 212.527 151.275 215.022C151.275 217.517 149.407 220.617 147.104 221.947L73.2794 264.57C70.9754 265.899 69.1086 264.955 69.1086 262.46C69.1086 259.965 70.9754 256.864 73.2794 255.534Z" fill="#C8C8C8"/>
<path d="M108.235 201.922C108.235 200.326 109.356 198.386 110.738 197.587L238.761 123.673C240.142 122.876 242.384 122.876 243.766 123.673L246.586 125.302C247.969 126.1 249.089 128.04 249.089 129.637V227.768C249.089 229.357 247.963 231.308 246.587 232.103L118.564 306.017C117.187 306.811 114.936 306.811 113.558 306.017L110.739 304.389C109.361 303.594 108.235 301.644 108.235 300.054V201.922Z" fill="#0068C9"/>
<g opacity="0.399994">
<g opacity="0.399994">
<path opacity="0.399994" d="M108.965 199.457L116.069 203.553L248.354 127.17C247.904 126.389 247.276 125.702 246.59 125.3L243.76 123.677C242.387 122.873 240.138 122.873 238.764 123.677L110.741 197.587C110.043 197.989 109.415 198.675 108.965 199.457Z" fill="white"/>
</g>
</g>
<g opacity="0.100006">
<g opacity="0.100006">
<path opacity="0.100006" d="M108.231 201.919V300.05C108.231 301.649 109.355 303.59 110.74 304.384L113.559 306.017C113.772 306.136 113.996 306.243 114.246 306.326C114.564 306.431 114.908 306.514 115.275 306.562C115.926 306.644 116.613 306.621 117.252 306.49C117.417 306.456 117.583 306.408 117.737 306.36C117.844 306.326 117.939 306.289 118.033 306.243C117.572 306.408 117.169 306.384 116.838 306.219C116.364 305.97 116.068 305.402 116.068 304.572V206.442C116.068 205.412 116.589 204.63 117.37 204.311L116.068 203.553L108.965 199.457C108.515 200.239 108.231 201.127 108.231 201.919Z" fill="black"/>
</g>
</g>
<g opacity="0.199997">
<g opacity="0.199997">
<path opacity="0.199997" d="M116.068 203.553L175.357 225.704C179.582 227.278 184.33 225.715 186.792 221.939L196.314 207.352L248.828 126.898L198.211 207.9L249.088 227.811C249.075 228.617 248.781 229.516 248.307 230.309L198.07 208.128L187.006 225.834C184.46 229.895 179.322 231.481 174.942 229.539L167.064 226.062L116.838 306.218C116.364 305.97 116.068 305.401 116.068 304.573V302.939L166.819 225.953L116.068 203.553Z" fill="black"/>
</g>
</g>
<path d="M221.702 90.8936V316.195C221.702 318.856 223.57 319.933 225.874 318.603L327.088 260.168C329.39 258.838 331.259 255.604 331.259 252.944V27.6424C331.259 24.9829 329.39 23.9051 327.088 25.2343L225.874 83.6694C223.57 84.9996 221.702 88.2341 221.702 90.8936Z" fill="white"/>
<path d="M221.702 90.8936V316.195C221.702 318.856 223.57 319.933 225.874 318.603L327.088 260.168C329.39 258.838 331.259 255.604 331.259 252.944V27.6424C331.259 24.9829 329.39 23.9051 327.088 25.2343L225.874 83.6694C223.57 84.9996 221.702 88.2341 221.702 90.8936Z" stroke="#9C9C9C" stroke-width="1.12697" stroke-miterlimit="10"/>
<path d="M227.568 95.0917C227.568 94.4676 228.053 93.6816 228.652 93.3358L240.182 86.6818C240.781 86.336 241.267 86.5614 241.267 87.1856C241.266 87.8088 240.78 88.5948 240.181 88.9406L228.652 95.5955C228.053 95.9413 227.568 95.7149 227.568 95.0917Z" fill="#383838"/>
<path d="M227.568 99.5781C227.568 98.9549 228.053 98.1689 228.652 97.8231L240.182 91.1692C240.781 90.8234 241.267 91.0488 241.267 91.672C241.266 92.2952 240.78 93.0812 240.181 93.427L228.652 100.082C228.053 100.428 227.568 100.202 227.568 99.5781Z" fill="#383838"/>
<path d="M227.568 104.065C227.568 103.442 228.053 102.655 228.652 102.309L240.182 95.6551C240.781 95.3093 241.267 95.5357 241.267 96.1589C241.266 96.7821 240.78 97.5681 240.181 97.9139L228.652 104.569C228.053 104.915 227.568 104.689 227.568 104.065Z" fill="#383838"/>
<path d="M317.338 51.9497C315.884 52.7896 314.706 52.1086 314.706 50.4297C314.706 48.7518 315.884 46.7097 317.338 45.8707C318.792 45.0308 319.97 45.7118 319.97 47.3907C319.97 49.0687 318.792 51.1097 317.338 51.9497ZM323.431 46.2917V44.4924C323.431 44.3854 323.352 44.3344 323.255 44.3787L321.867 45.0038C321.769 45.0472 321.668 44.999 321.636 44.8969C321.555 44.6417 321.451 44.4124 321.327 44.2082C321.27 44.1177 321.258 43.9684 321.306 43.873L322.23 42.0092C322.278 41.9128 322.241 41.7915 322.148 41.7375L321.145 41.1577C321.052 41.1047 320.928 41.1336 320.869 41.2232L319.717 42.956C319.657 43.0446 319.523 43.1082 319.415 43.1053C319.176 43.0995 318.926 43.1236 318.665 43.1814C318.561 43.2045 318.468 43.141 318.457 43.035L318.306 41.5208C318.294 41.4139 318.21 41.3715 318.118 41.4255L316.558 42.3241C316.467 42.3781 316.383 42.5081 316.373 42.615L316.217 44.3488C316.208 44.4558 316.134 44.6002 316.055 44.6725C315.752 44.9518 315.463 45.2601 315.19 45.5885C315.121 45.6714 314.985 45.7108 314.883 45.6752L313.883 45.3265C313.782 45.2909 313.656 45.3381 313.602 45.4305L312.458 47.4148C312.403 47.5082 312.425 47.6402 312.507 47.7105L313.309 48.4011C313.391 48.4715 313.426 48.6092 313.387 48.7103C313.239 49.111 313.117 49.5156 313.027 49.9182C313.004 50.0232 312.915 50.1581 312.828 50.2197L311.404 51.2224C311.316 51.2841 311.245 51.4209 311.245 51.5287V53.3271C311.245 53.435 311.325 53.486 311.422 53.4417L312.809 52.8166C312.907 52.7723 313.008 52.8214 313.041 52.9235C313.121 53.1787 313.225 53.408 313.349 53.6112C313.406 53.7027 313.418 53.8511 313.371 53.9474L312.446 55.8112C312.398 55.9076 312.435 56.0289 312.528 56.0829L313.532 56.6618C313.625 56.7157 313.748 56.6868 313.807 56.5972L314.959 54.8644C315.019 54.7758 315.153 54.7122 315.262 54.7151C315.5 54.7209 315.75 54.6968 316.011 54.639C316.115 54.6159 316.209 54.6785 316.219 54.7854L316.371 56.2996C316.382 56.4056 316.467 56.4489 316.558 56.3959L318.118 55.4963C318.21 55.4414 318.293 55.3123 318.303 55.2044L318.459 53.4716C318.469 53.3637 318.543 53.2202 318.622 53.1479C318.924 52.8686 319.214 52.5604 319.486 52.2309C319.555 52.1491 319.691 52.1096 319.793 52.1442L320.793 52.4939C320.894 52.5295 321.02 52.4823 321.074 52.3899L322.219 50.4056C322.273 50.3122 322.251 50.1802 322.17 50.1099L321.367 49.4193C321.286 49.349 321.251 49.2103 321.289 49.1101C321.438 48.7094 321.559 48.3048 321.65 47.9022C321.673 47.7972 321.761 47.6623 321.849 47.5997L323.272 46.598C323.36 46.5363 323.431 46.3996 323.431 46.2917Z" fill="#37474F"/>
<path d="M276.481 90.6965C288.306 83.8682 297.893 89.4039 297.893 103.059C297.893 116.715 288.306 133.319 276.481 140.149C264.654 146.976 255.067 141.441 255.067 127.785C255.067 114.13 264.654 97.5239 276.481 90.6965Z" fill="white"/>
<path d="M276.33 101.443C280.166 99.228 283.277 101.023 283.277 105.454C283.277 109.884 280.166 115.272 276.33 117.487C272.494 119.701 269.382 117.906 269.382 113.476C269.382 109.045 272.494 103.658 276.33 101.443Z" fill="#0068C9"/>
<path d="M290.02 125.066C290.02 117.787 284.909 114.837 278.607 118.477L274.667 120.752C268.365 124.39 263.254 133.241 263.254 140.52V142.505C264.391 142.883 265.626 143.07 266.932 143.073C269.808 143.079 273.044 142.132 276.48 140.149C281.618 137.182 286.331 132.368 290.02 126.754V125.066Z" fill="#0068C9"/>
<path d="M257.152 160.466L295.808 138.149C296.959 137.484 297.894 137.956 297.894 139.203C297.894 140.452 296.959 142.001 295.808 142.667L257.152 164.984C256.001 165.65 255.067 165.177 255.067 163.929C255.067 162.682 256.001 161.131 257.152 160.466Z" fill="#0068C9"/>
<path d="M253.004 176.429L299.956 149.292C301.107 148.628 302.042 149.1 302.042 150.347C302.042 151.594 301.107 153.145 299.956 153.811L253.004 180.947C251.853 181.612 250.918 181.14 250.918 179.892C250.918 178.645 251.853 177.094 253.004 176.429Z" fill="#383838"/>
<path d="M301.208 171.168L314.354 163.577C315.046 163.178 315.606 163.36 315.606 163.984C315.606 164.608 315.046 165.437 314.354 165.836L301.208 173.427C300.517 173.826 299.956 173.644 299.956 173.02C299.956 172.396 300.517 171.567 301.208 171.168Z" fill="#37474F"/>
<path d="M235.527 204.578L254.832 193.432C255.983 192.767 256.917 193.306 256.917 194.636V207.891C256.917 209.222 255.984 210.839 254.832 211.503L235.527 222.65C234.375 223.315 233.441 222.775 233.441 221.446V208.19C233.441 206.86 234.375 205.242 235.527 204.578Z" fill="#0068C9"/>
<path d="M238.605 206.43L251.752 198.839C252.444 198.44 253.004 198.623 253.004 199.247C253.004 199.87 252.444 200.699 251.752 201.099L238.605 208.69C237.915 209.089 237.354 208.906 237.354 208.283C237.354 207.659 237.915 206.83 238.605 206.43Z" fill="white"/>
<path d="M237.354 213.116V217.003C237.354 217.8 237.915 218.124 238.605 217.725L251.753 210.134C252.444 209.735 253.004 208.764 253.004 207.967L253.005 204.08C253.005 203.282 252.444 202.958 251.754 203.358L238.605 210.949C237.915 211.348 237.354 212.318 237.354 213.116Z" fill="white"/>
<path d="M266.828 186.506L286.133 175.361C287.284 174.696 288.218 175.234 288.218 176.565V189.82C288.218 191.15 287.284 192.767 286.133 193.432L266.828 204.578C265.676 205.243 264.742 204.704 264.742 203.374V190.118C264.742 188.789 265.676 187.171 266.828 186.506Z" fill="#0068C9"/>
<path d="M269.906 188.359L283.053 180.768C283.744 180.369 284.305 180.551 284.305 181.175C284.305 181.799 283.744 182.628 283.053 183.028L269.906 190.618C269.215 191.018 268.655 190.835 268.655 190.211C268.655 189.587 269.215 188.759 269.906 188.359Z" fill="white"/>
<path d="M268.655 195.045V198.931C268.655 199.729 269.215 200.053 269.907 199.654L283.054 192.063C283.744 191.664 284.305 190.693 284.305 189.895V186.008C284.306 185.21 283.745 184.887 283.054 185.285L269.907 192.877C269.215 193.276 268.655 194.246 268.655 195.045Z" fill="white"/>
<path d="M298.129 168.434L317.434 157.288C318.585 156.623 319.519 157.162 319.519 158.492V171.747C319.519 173.077 318.586 174.695 317.434 175.359L298.129 186.506C296.978 187.17 296.043 186.632 296.043 185.302V172.046C296.043 170.716 296.978 169.098 298.129 168.434Z" fill="#0068C9"/>
<path d="M301.207 170.287L314.354 162.696C315.046 162.297 315.606 162.479 315.606 163.103C315.606 163.726 315.046 164.556 314.354 164.954L301.207 172.546C300.517 172.944 299.956 172.762 299.956 172.139C299.956 171.515 300.517 170.686 301.207 170.287Z" fill="white"/>
<path d="M299.956 176.972V180.859C299.956 181.657 300.517 181.981 301.208 181.581L314.355 173.99C315.046 173.591 315.606 172.621 315.606 171.823L315.607 167.936C315.607 167.137 315.046 166.815 314.356 167.214L301.208 174.805C300.517 175.204 299.956 176.174 299.956 176.972Z" fill="white"/>
<path d="M237.612 234.999L315.348 190.118C317.652 188.788 319.52 189.733 319.52 192.228C319.52 194.723 317.652 197.824 315.348 199.154L237.612 244.035C235.308 245.365 233.441 244.421 233.441 241.925C233.441 239.43 235.308 236.329 237.612 234.999Z" fill="#C8C8C8"/>
<path d="M237.612 253.071L315.348 208.19C317.652 206.859 319.52 207.804 319.52 210.3C319.52 212.795 317.652 215.895 315.348 217.226L237.612 262.107C235.308 263.436 233.441 262.492 233.441 259.997C233.441 257.502 235.308 254.4 237.612 253.071Z" fill="#C8C8C8"/>
<path d="M262.915 261.052L290.045 245.388C291.197 244.724 292.13 245.262 292.13 246.592L292.131 255.331C292.131 256.66 291.197 258.277 290.046 258.943L262.915 274.606C261.764 275.271 260.83 274.732 260.83 273.402V264.664C260.83 263.334 261.763 261.717 262.915 261.052Z" fill="#0068C9"/>
<path d="M239.31 236.327C238.23 236.95 237.354 238.468 237.354 239.715C237.354 240.963 238.23 241.468 239.31 240.845C240.391 240.221 241.266 238.704 241.266 237.456C241.266 236.208 240.391 235.702 239.31 236.327Z" fill="white"/>
<path d="M245.508 232.743C244.427 233.366 243.552 234.884 243.552 236.132C243.552 237.379 244.427 237.886 245.508 237.262C246.588 236.638 247.464 235.12 247.464 233.873C247.464 232.625 246.588 232.119 245.508 232.743Z" fill="white"/>
<path d="M251.706 229.16C250.625 229.783 249.75 231.301 249.75 232.548C249.75 233.796 250.625 234.302 251.706 233.678C252.786 233.054 253.661 231.537 253.661 230.29C253.661 229.041 252.786 228.537 251.706 229.16Z" fill="white"/>
<path d="M257.903 225.576C256.823 226.201 255.946 227.718 255.946 228.966C255.946 230.212 256.823 230.719 257.903 230.095C258.983 229.471 259.859 227.955 259.859 226.706C259.859 225.458 258.983 224.953 257.903 225.576Z" fill="white"/>
<path d="M264.101 221.993C263.02 222.617 262.144 224.134 262.144 225.383C262.144 226.63 263.02 227.136 264.101 226.512C265.18 225.888 266.057 224.371 266.057 223.123C266.057 221.876 265.18 221.37 264.101 221.993Z" fill="white"/>
<path d="M270.299 218.41C269.218 219.033 268.342 220.551 268.342 221.799C268.342 223.046 269.218 223.552 270.299 222.928C271.378 222.304 272.254 220.787 272.254 219.54C272.254 218.292 271.378 217.786 270.299 218.41Z" fill="white"/>
<path d="M276.496 214.827C275.416 215.45 274.54 216.968 274.54 218.215C274.54 219.463 275.416 219.968 276.496 219.345C277.576 218.721 278.452 217.204 278.452 215.956C278.452 214.708 277.576 214.202 276.496 214.827Z" fill="white"/>
<path d="M239.31 254.418C238.23 255.041 237.354 256.56 237.354 257.807C237.354 259.054 238.23 259.561 239.31 258.937C240.391 258.313 241.266 256.795 241.266 255.548C241.266 254.3 240.391 253.794 239.31 254.418Z" fill="white"/>
<path d="M245.508 250.835C244.427 251.458 243.552 252.976 243.552 254.223C243.552 255.471 244.427 255.977 245.508 255.353C246.588 254.729 247.464 253.212 247.464 251.965C247.464 250.716 246.588 250.212 245.508 250.835Z" fill="white"/>
<path d="M251.706 247.251C250.625 247.875 249.75 249.393 249.75 250.64C249.75 251.887 250.625 252.394 251.706 251.77C252.786 251.146 253.661 249.629 253.661 248.381C253.661 247.133 252.786 246.628 251.706 247.251Z" fill="white"/>
<path d="M257.903 243.668C256.823 244.291 255.946 245.809 255.946 247.057C255.946 248.304 256.823 248.811 257.903 248.186C258.983 247.562 259.859 246.045 259.859 244.798C259.859 243.55 258.983 243.045 257.903 243.668Z" fill="white"/>
<path d="M264.101 240.085C263.02 240.709 262.144 242.226 262.144 243.474C262.144 244.722 263.02 245.227 264.101 244.603C265.18 243.98 266.057 242.463 266.057 241.214C266.057 239.967 265.18 239.461 264.101 240.085Z" fill="white"/>
<path d="M270.299 236.501C269.218 237.125 268.342 238.642 268.342 239.891C268.342 241.138 269.218 241.644 270.299 241.02C271.378 240.396 272.254 238.879 272.254 237.631C272.254 236.384 271.378 235.878 270.299 236.501Z" fill="white"/>
<path d="M276.496 232.918C275.416 233.541 274.54 235.059 274.54 236.307C274.54 237.554 275.416 238.06 276.496 237.437C277.576 236.813 278.452 235.295 278.452 234.048C278.452 232.8 277.576 232.294 276.496 232.918Z" fill="white"/>
<path d="M383.326 208.735C380.897 208.735 378.33 209.956 376.751 210.867C365.75 217.219 356.456 234.278 356.456 248.121C356.456 253.723 358.027 257.976 360.66 259.495C363.655 261.225 367.817 259.337 370.032 258.059C381.033 251.707 390.327 234.647 390.327 220.806C390.327 215.203 388.756 210.951 386.123 209.431C385.263 208.935 384.306 208.735 383.326 208.735ZM363.425 273.641C360.046 273.641 356.841 272.808 353.939 271.133C346.998 267.125 343.017 258.737 343.017 248.121C343.017 229.451 354.884 207.974 370.032 199.228C378.188 194.521 386.288 194.009 392.843 197.793C399.785 201.801 403.766 210.189 403.766 220.806C403.766 239.476 391.899 260.951 376.751 269.697C372.206 272.321 367.679 273.641 363.425 273.641Z" fill="#383838"/>
<path d="M392.731 223.795C392.731 213.309 386.124 209.431 386.124 209.431C388.756 210.951 390.327 215.203 390.327 220.806C390.327 234.647 381.032 251.707 370.032 258.06C367.818 259.336 363.655 261.224 360.659 259.495C360.659 259.495 366.234 262.955 373.936 258.753C385.089 252.67 392.731 237.637 392.731 223.795Z" fill="#37474F"/>
<path d="M382.132 92.7132C382.132 88.8757 379.022 85.7654 375.185 85.7654C371.348 85.7654 368.237 88.8757 368.237 92.7132V92.7315V203.221C368.237 204.248 368.915 205.275 370.272 206.058C372.985 207.624 377.384 207.624 380.098 206.058C381.454 205.275 382.132 204.248 382.132 203.221V92.7315H382.131C382.131 92.7257 382.132 92.7189 382.132 92.7132Z" fill="#37474F"/>
<path d="M376.582 117.403C376.582 114.844 374.786 111.732 372.571 110.453C371.444 109.802 370.428 109.757 369.699 110.2L369.696 110.194L352.553 120.071L352.138 120.318C352.079 120.348 352.019 120.377 351.97 120.417C351.674 120.614 351.398 120.842 351.15 121.088C350.113 122.116 349.471 123.547 349.471 125.118C349.471 127.272 350.667 129.149 352.425 130.117C353.235 130.551 354.153 130.798 355.14 130.798C356.119 130.798 357.047 130.551 357.847 130.117C357.956 130.057 358.063 129.988 358.173 129.929L375.426 119.992L375.423 119.988C376.138 119.565 376.582 118.673 376.582 117.403Z" fill="#383838"/>
<path d="M376.583 145.072C376.583 142.513 374.786 139.402 372.571 138.122C371.444 137.471 370.429 137.426 369.699 137.869L369.696 137.863L349.604 149.402L349.189 149.649C349.13 149.679 349.071 149.708 349.021 149.748C348.724 149.946 348.448 150.172 348.201 150.42C347.164 151.447 346.522 152.879 346.522 154.449C346.522 156.603 347.717 158.479 349.475 159.447C350.285 159.882 351.203 160.129 352.192 160.129C353.169 160.129 354.098 159.882 354.897 159.447C355.007 159.389 355.115 159.319 355.224 159.26L375.426 147.661L375.423 147.657C376.139 147.234 376.583 146.342 376.583 145.072Z" fill="#383838"/>
</svg>
