<svg width="26" height="26" viewBox="0 0 26 26" fill="none" xmlns="http://www.w3.org/2000/svg">
<path d="M18.908 14.3C19.8826 14.3 20.7403 13.767 21.1821 12.961L25.8344 4.524C26.3152 3.666 25.6915 2.6 24.7038 2.6H5.47097L4.24942 0H0V2.6H2.59903L7.2773 12.467L5.52295 15.639C4.5743 17.381 5.82184 19.5 7.7971 19.5H23.3913V16.9H7.7971L9.22657 14.3H18.908ZM6.70551 5.2H22.4946L18.908 11.7H9.78537L6.70551 5.2ZM7.7971 20.8C6.36764 20.8 5.21107 21.97 5.21107 23.4C5.21107 24.83 6.36764 26 7.7971 26C9.22657 26 10.3961 24.83 10.3961 23.4C10.3961 21.97 9.22657 20.8 7.7971 20.8ZM20.7923 20.8C19.3628 20.8 18.2062 21.97 18.2062 23.4C18.2062 24.83 19.3628 26 20.7923 26C22.2217 26 23.3913 24.83 23.3913 23.4C23.3913 21.97 22.2217 20.8 20.7923 20.8Z" fill="#383838"/>
</svg>
