<svg width="26" height="26" viewBox="0 0 26 26" fill="none" xmlns="http://www.w3.org/2000/svg">
<mask id="path-1-inside-1" fill="white">
<path d="M2.806 12.5453L12.556 2.79533C12.946 2.40533 13.4877 2.16699 14.0835 2.16699H21.6668C22.8585 2.16699 23.8335 3.14199 23.8335 4.33366V11.917C23.8335 12.5128 23.5952 13.0545 23.1943 13.4553L13.4443 23.2053C13.0543 23.5953 12.5127 23.8337 11.9168 23.8337C11.321 23.8337 10.7793 23.5953 10.3893 23.1945L2.806 15.6112C2.40516 15.2212 2.16683 14.6795 2.16683 14.0837C2.16683 13.4878 2.416 12.9353 2.806 12.5453ZM11.9168 21.6778L21.6668 11.917V4.33366H14.0835V4.32283L4.3335 14.0728L11.9168 21.6778Z"/>
</mask>
<path d="M2.806 12.5453L12.556 2.79533C12.946 2.40533 13.4877 2.16699 14.0835 2.16699H21.6668C22.8585 2.16699 23.8335 3.14199 23.8335 4.33366V11.917C23.8335 12.5128 23.5952 13.0545 23.1943 13.4553L13.4443 23.2053C13.0543 23.5953 12.5127 23.8337 11.9168 23.8337C11.321 23.8337 10.7793 23.5953 10.3893 23.1945L2.806 15.6112C2.40516 15.2212 2.16683 14.6795 2.16683 14.0837C2.16683 13.4878 2.416 12.9353 2.806 12.5453ZM11.9168 21.6778L21.6668 11.917V4.33366H14.0835V4.32283L4.3335 14.0728L11.9168 21.6778Z" fill="black"/>
<path d="M23.1943 13.4553L25.4924 15.7534L23.1943 13.4553ZM13.4443 23.2053L11.1462 20.9072L11.1462 20.9072L13.4443 23.2053ZM10.3893 23.1945L12.6874 20.8964L12.7032 20.9121L12.7187 20.9281L10.3893 23.1945ZM2.806 15.6112L5.0724 13.2818L5.08836 13.2973L5.10409 13.3131L2.806 15.6112ZM11.9168 21.6778L14.2162 23.9746L11.9148 26.2786L9.61546 23.9726L11.9168 21.6778ZM21.6668 11.917H24.9168V13.2621L23.9662 14.2138L21.6668 11.917ZM21.6668 4.33366V1.08366H24.9168V4.33366H21.6668ZM14.0835 4.33366V7.58366H10.8335V4.33366H14.0835ZM14.0835 4.32283L11.7854 2.02473L17.3335 -3.52337V4.32283H14.0835ZM4.3335 14.0728L2.03212 16.3676L-0.259421 14.0695L2.0354 11.7747L4.3335 14.0728ZM0.507901 10.2472L10.2579 0.497228L14.8541 5.09342L5.10409 14.8434L0.507901 10.2472ZM10.2579 0.497228C11.2442 -0.489104 12.6073 -1.08301 14.0835 -1.08301V5.41699C14.3681 5.41699 14.6478 5.29975 14.8541 5.09342L10.2579 0.497228ZM14.0835 -1.08301H21.6668V5.41699H14.0835V-1.08301ZM21.6668 -1.08301C24.6534 -1.08301 27.0835 1.34707 27.0835 4.33366H20.5835C20.5835 4.93692 21.0636 5.41699 21.6668 5.41699V-1.08301ZM27.0835 4.33366V11.917H20.5835V4.33366H27.0835ZM27.0835 11.917C27.0835 13.4051 26.481 14.7649 25.4924 15.7534L20.8962 11.1572C20.7094 11.3441 20.5835 11.6205 20.5835 11.917H27.0835ZM25.4924 15.7534L15.7424 25.5034L11.1462 20.9072L20.8962 11.1572L25.4924 15.7534ZM15.7424 25.5034C14.7561 26.4898 13.3931 27.0837 11.9168 27.0837V20.5837C11.6323 20.5837 11.3526 20.7009 11.1462 20.9072L15.7424 25.5034ZM11.9168 27.0837C10.4363 27.0837 9.05674 26.4854 8.05997 25.4609L12.7187 20.9281C12.5019 20.7053 12.2056 20.5837 11.9168 20.5837V27.0837ZM8.09123 25.4926L0.507901 17.9093L5.10409 13.3131L12.6874 20.8964L8.09123 25.4926ZM0.539594 17.9405C-0.484864 16.9437 -1.08317 15.5641 -1.08317 14.0837H5.41683C5.41683 13.7948 5.29519 13.4986 5.0724 13.2818L0.539594 17.9405ZM-1.08317 14.0837C-1.08317 12.5838 -0.461209 11.2163 0.507901 10.2472L5.10409 14.8434C5.2932 14.6543 5.41683 14.3918 5.41683 14.0837H-1.08317ZM9.61746 19.381L19.3675 9.62017L23.9662 14.2138L14.2162 23.9746L9.61746 19.381ZM18.4168 11.917V4.33366H24.9168V11.917H18.4168ZM21.6668 7.58366H14.0835V1.08366H21.6668V7.58366ZM10.8335 4.33366V4.32283H17.3335V4.33366H10.8335ZM16.3816 6.62092L6.63159 16.3709L2.0354 11.7747L11.7854 2.02473L16.3816 6.62092ZM6.63487 11.778L14.2182 19.383L9.61546 23.9726L2.03212 16.3676L6.63487 11.778Z" fill="white" mask="url(#path-1-inside-1)"/>
<path d="M16.9001 6.9874C18.0668 6.9874 19.0126 7.9332 19.0126 9.0999C19.0126 10.2666 18.0668 11.2124 16.9001 11.2124C15.7334 11.2124 14.7876 10.2666 14.7876 9.0999C14.7876 7.9332 15.7334 6.9874 16.9001 6.9874Z" stroke="white" stroke-width="1.625"/>
</svg>
