<svg width="26" height="28" viewBox="0 0 26 28" fill="none" xmlns="http://www.w3.org/2000/svg">
<path d="M21.6667 19.7912C20.5689 19.7912 19.5867 20.2129 18.8356 20.8735L8.53667 15.0402C8.60889 14.7169 8.66667 14.3936 8.66667 14.0562C8.66667 13.7189 8.60889 13.3956 8.53667 13.0723L18.72 7.29518C19.5 7.99799 20.5256 8.43373 21.6667 8.43373C24.0644 8.43373 26 6.5502 26 4.21687C26 1.88353 24.0644 0 21.6667 0C19.2689 0 17.3333 1.88353 17.3333 4.21687C17.3333 4.55422 17.3911 4.87751 17.4633 5.2008L7.28 10.9779C6.5 10.2751 5.47444 9.83936 4.33333 9.83936C1.93556 9.83936 0 11.7229 0 14.0562C0 16.3896 1.93556 18.2731 4.33333 18.2731C5.47444 18.2731 6.5 17.8373 7.28 17.1345L17.5644 22.9819C17.4922 23.2771 17.4489 23.5863 17.4489 23.8956C17.4489 26.1586 19.3411 28 21.6667 28C23.9922 28 25.8844 26.1586 25.8844 23.8956C25.8844 21.6325 23.9922 19.7912 21.6667 19.7912ZM21.6667 2.81124C22.4611 2.81124 23.1111 3.44378 23.1111 4.21687C23.1111 4.98996 22.4611 5.62249 21.6667 5.62249C20.8722 5.62249 20.2222 4.98996 20.2222 4.21687C20.2222 3.44378 20.8722 2.81124 21.6667 2.81124ZM4.33333 15.4618C3.53889 15.4618 2.88889 14.8293 2.88889 14.0562C2.88889 13.2831 3.53889 12.6506 4.33333 12.6506C5.12778 12.6506 5.77778 13.2831 5.77778 14.0562C5.77778 14.8293 5.12778 15.4618 4.33333 15.4618ZM21.6667 25.3293C20.8722 25.3293 20.2222 24.6968 20.2222 23.9237C20.2222 23.1506 20.8722 22.5181 21.6667 22.5181C22.4611 22.5181 23.1111 23.1506 23.1111 23.9237C23.1111 24.6968 22.4611 25.3293 21.6667 25.3293Z" fill="white"/>
</svg>
