<svg width="43" height="42" viewBox="0 0 43 42" fill="none" xmlns="http://www.w3.org/2000/svg">
<ellipse cx="21.4098" cy="21" rx="21.4098" ry="21" fill="#0068C9"/>
<path d="M21.5 7C13.496 7 7 13.272 7 21C7 28.728 13.496 35 21.5 35C29.504 35 36 28.728 36 21C36 13.272 29.504 7 21.5 7ZM14.3515 29.792C14.975 28.532 18.774 27.3 21.5 27.3C24.226 27.3 28.0395 28.532 28.6485 29.792C26.6765 31.304 24.197 32.2 21.5 32.2C18.803 32.2 16.3235 31.304 14.3515 29.792ZM30.722 27.762C28.6485 25.326 23.617 24.5 21.5 24.5C19.383 24.5 14.3515 25.326 12.278 27.762C10.799 25.886 9.9 23.548 9.9 21C9.9 14.826 15.1055 9.8 21.5 9.8C27.8945 9.8 33.1 14.826 33.1 21C33.1 23.548 32.201 25.886 30.722 27.762V27.762ZM21.5 12.6C18.687 12.6 16.425 14.784 16.425 17.5C16.425 20.216 18.687 22.4 21.5 22.4C24.313 22.4 26.575 20.216 26.575 17.5C26.575 14.784 24.313 12.6 21.5 12.6ZM21.5 19.6C20.2965 19.6 19.325 18.662 19.325 17.5C19.325 16.338 20.2965 15.4 21.5 15.4C22.7035 15.4 23.675 16.338 23.675 17.5C23.675 18.662 22.7035 19.6 21.5 19.6Z" fill="white"/>
</svg>
