<svg width="109" height="20" viewBox="0 0 109 20" fill="none" xmlns="http://www.w3.org/2000/svg">
<path fill-rule="evenodd" clip-rule="evenodd" d="M102.581 2.54983H106.188C105.789 2.85926 105.549 3.23902 105.549 3.75879V16.1809C105.549 16.7008 105.798 17.0705 106.188 17.3804H102.581C102.971 17.0705 103.21 16.6909 103.21 16.1809V3.75879C103.21 3.23902 102.98 2.85926 102.581 2.54983Z" fill="white"/>
<path fill-rule="evenodd" clip-rule="evenodd" d="M18.9628 7.88627C18.3732 6.61721 17.7234 5.36796 16.6343 4.45821C15.475 3.47876 14.0058 2.8893 12.4869 2.8893C8.44921 2.8893 6.64036 6.53729 6.64036 10.1248C6.64036 13.5926 8.36929 17.1004 12.2669 17.1004C13.856 17.1004 15.4051 16.4109 16.3846 15.1617V12.3635C16.3846 11.6037 16.1346 11.1142 15.5447 10.6645H19.6724C19.2326 11.1642 18.9628 11.6739 18.9628 12.3635V15.1617C17.0741 16.9206 14.7256 18 12.1171 18C7.50991 18 3.74243 14.612 3.74243 9.89502C3.74243 5.20813 7.45998 2 12.0072 2C14.8355 2 17.1238 3.03954 18.9628 5.12822V7.88627Z" fill="white"/>
<path fill-rule="evenodd" clip-rule="evenodd" d="M29.0767 2.54979H32.9641C32.4344 2.93914 32.2544 3.37899 32.2544 4.02855V13.0929C32.2544 15.5813 35.1728 16.8007 37.3112 16.8007C39.41 16.8007 42.1484 15.5715 42.1484 13.1431V4.02855C42.1484 3.41863 41.9983 2.99923 41.5887 2.54979H43.7072C43.2777 2.98901 43.1178 3.42886 43.1178 4.02855V13.1431C43.1178 16.4208 39.2502 17.6801 36.5718 17.6801C33.8134 17.6801 29.7862 16.4611 29.7862 13.0929V4.02855C29.7862 3.40904 29.5362 2.94937 29.0767 2.54979Z" fill="white"/>
<path fill-rule="evenodd" clip-rule="evenodd" d="M68.0122 7.93618C67.4924 6.62684 66.8832 5.47797 65.8136 4.52857C64.6647 3.50885 63.2652 2.86952 61.7161 2.86952C57.7191 2.86952 55.6699 6.36727 55.6699 9.99499C55.6699 13.6429 57.799 17.0907 61.7462 17.0907C64.6845 17.0907 66.7828 15.0217 68.0122 12.5333V15.2317C66.1831 17.0405 63.8246 17.9601 61.2469 17.9601C56.4696 17.9601 52.8916 14.8718 52.8916 9.94474C52.8916 5.1583 56.3298 2.01027 61.0167 2.01027C63.6149 2.01027 66.1332 2.90916 68.0122 4.69799V7.93618Z" fill="white"/>
<path fill-rule="evenodd" clip-rule="evenodd" d="M93.0761 7.93618C92.557 6.62684 91.947 5.47797 90.8781 4.52857C89.7286 3.50885 88.3297 2.86952 86.7807 2.86952C82.7823 2.86952 80.7442 6.36727 80.7442 9.99499C80.7442 13.6429 82.8629 17.0907 86.8101 17.0907C89.7484 17.0907 91.8575 15.0217 93.0761 12.5333V15.2317C91.2476 17.0405 88.8987 17.9601 86.3108 17.9601C81.5337 17.9601 77.9561 14.8718 77.9561 9.94474C77.9561 5.1583 81.3937 2.01027 86.0806 2.01027C88.6788 2.01027 91.1977 2.90916 93.0761 4.69799V7.93618Z" fill="white"/>
</svg>
