<svg width="50" height="20" viewBox="0 0 50 20" fill="none" xmlns="http://www.w3.org/2000/svg">
<path fill-rule="evenodd" clip-rule="evenodd" d="M8.86654 2.70933C5.97382 6.10667 3.19988 10.3199 3.1721 13.4688C3.16135 14.6536 3.53944 15.688 4.4468 16.472C5.75275 17.5997 7.19111 17.9976 8.62283 18C10.715 18.0026 12.7924 17.1589 14.4191 16.508C17.1588 15.4125 47.441 2.26197 47.441 2.26197C47.7332 2.11587 47.6781 1.93318 47.3128 2.02453C47.1652 2.06142 14.3458 10.9556 14.3458 10.9556C13.7124 11.1333 13.0653 11.2255 12.4356 11.2291C9.91332 11.2439 7.66892 9.84386 7.68698 6.89335C7.6943 5.73894 8.0478 4.3471 8.86654 2.70933Z" fill="white"/>
</svg>
