<svg width="43" height="20" viewBox="0 0 43 20" fill="none" xmlns="http://www.w3.org/2000/svg">
<path d="M41.2409 0.999964H37.842H21.6792H21.6611H2L5.48026 17.6057C14.5831 12.8057 21.6611 17.6057 21.6611 17.6057C21.6611 17.6057 21.6674 17.6015 21.6792 17.5937C21.9154 17.4389 24.4822 15.8109 28.3946 15.5176C29.151 15.4608 29.9579 15.4542 30.8078 15.5176C32.922 15.6752 35.3032 16.267 37.842 17.6057L38.2796 15.5176L41.2409 1.38814L41.3222 0.999964H41.2409Z" fill="white"/>
<path d="M8.12831 9.77447H10.3576V11.3376H5.8999V4.73851H8.12831V9.77447Z" fill="#0068C9"/>
<path d="M14.1493 5.8381C15.0757 5.8381 15.3065 6.27244 15.3065 7.372H12.9911C12.9911 6.38791 13.1936 5.8381 14.1493 5.8381ZM14.2363 10.3251C13.2229 10.3251 12.9911 9.89084 12.9911 8.67495H17.5359C17.5359 5.75105 16.8413 4.53602 14.2363 4.53602C11.3995 4.53602 10.6472 5.52016 10.6472 8.06743C10.6472 10.5561 11.6891 11.7427 14.0916 11.7427C16.4647 11.7427 17.3334 10.8749 17.3911 9.51427H15.3065C15.3065 10.064 15.1041 10.3251 14.2363 10.3251" fill="#0068C9"/>
<path d="M23.0647 4.73851H25.4379L22.8622 11.3376H20.1124L17.5935 4.73851H20.0254L21.5308 9.05148L23.0647 4.73851Z" fill="#0068C9"/>
<path d="M26.075 4.70922H28.2456V11.3376H26.075V4.70922Z" fill="#0068C9"/>
<path d="M30.7643 4.50674C30.7643 4.99879 30.4748 5.37536 29.7802 5.80969L29.8957 5.14355C29.3459 5.14355 28.9409 5.0565 28.9409 4.44903C28.9409 3.98628 29.2881 3.66742 29.838 3.66742C30.3878 3.66742 30.7643 3.95694 30.7643 4.50674Z" fill="#0068C9"/>
<path d="M37.3927 9.31173C37.3927 10.962 36.4379 11.4824 34.0638 11.4824C31.5166 11.4824 30.6772 10.8456 30.6479 9.25402H32.9927C33.0504 10.0063 33.5141 10.2959 34.2664 10.2959C34.9032 10.2959 35.1643 10.064 35.1643 9.57196C35.1643 7.95107 30.7643 9.48491 30.7643 6.6197C30.7643 5.17286 31.8354 4.536 34.1509 4.536C36.3793 4.536 37.1902 5.17286 37.2195 6.56194H34.9902C34.8454 6.01218 34.6136 5.75103 34.0061 5.75103C33.427 5.75103 32.9927 6.06989 32.9927 6.44646C32.9927 8.00878 37.3927 6.70675 37.3927 9.31173Z" fill="#0068C9"/>
<path d="M35.0816 18.4885V18.2943C35.2584 18.2943 35.3295 18.3295 35.3295 18.3827C35.3295 18.4885 35.2053 18.4885 35.0816 18.4885ZM35.5058 18.3827C35.5058 18.188 35.3468 18.1348 35.1348 18.1348H34.9227V18.9126H35.0816V18.6832H35.2053L35.3295 18.9126H35.4705L35.3295 18.6121C35.4531 18.5416 35.5058 18.4711 35.5058 18.3827V18.3827ZM35.1879 19.1779C34.8343 19.1779 34.5338 18.8774 34.5338 18.5237C34.5338 18.1701 34.8164 17.8875 35.1879 17.8875C35.5589 17.8875 35.8421 18.1701 35.8421 18.5237C35.8421 18.8774 35.5589 19.1779 35.1879 19.1779ZM35.1879 17.746C34.7638 17.746 34.4102 18.0996 34.4102 18.5237C34.4102 18.9658 34.7638 19.3015 35.1879 19.3015C35.6121 19.3015 35.9657 18.9479 35.9657 18.5237C35.9657 18.0996 35.6121 17.746 35.1879 17.746V17.746ZM35.0816 18.4885V18.2943C35.2584 18.2943 35.3295 18.3295 35.3295 18.3827C35.3295 18.4885 35.2053 18.4885 35.0816 18.4885ZM35.5058 18.3827C35.5058 18.188 35.3468 18.1348 35.1348 18.1348H34.9227V18.9126H35.0816V18.6832H35.2053L35.3295 18.9126H35.4705L35.3295 18.6121C35.4531 18.5416 35.5058 18.4711 35.5058 18.3827V18.3827ZM35.0816 18.4885V18.2943C35.2584 18.2943 35.3295 18.3295 35.3295 18.3827C35.3295 18.4885 35.2053 18.4885 35.0816 18.4885ZM35.5058 18.3827C35.5058 18.188 35.3468 18.1348 35.1348 18.1348H34.9227V18.9126H35.0816V18.6832H35.2053L35.3295 18.9126H35.4705L35.3295 18.6121C35.4531 18.5416 35.5058 18.4711 35.5058 18.3827" fill="white"/>
</svg>
