<svg width="83" height="20" viewBox="0 0 83 20" fill="none" xmlns="http://www.w3.org/2000/svg">
<path fill-rule="evenodd" clip-rule="evenodd" d="M45.675 2.02229H45.7393V6.43801H41.2779V2.02229H45.675ZM26.2596 11.36L36.5775 12C37.0065 12 37.3574 12.3509 37.3574 12.7799V12.78C37.3574 13.2091 37.0067 13.56 36.5775 13.56H21.8726V7.81179C22.3245 9.58656 23.8795 11.0386 26.2596 11.36ZM21.8726 18H36.9059C39.0974 18 40.9372 16.4191 41.3425 14.3418C41.7001 16.4123 43.5114 18 45.675 18H55.2805C57.4267 18 59.2261 16.4376 59.6039 14.3917V18H75.0038C77.4899 18 79.5236 15.966 79.5236 13.48V12.84C79.5236 10.354 77.4899 8.32004 75.0038 8.32004L74.1593 8.28285C69.3674 8.07204 64.5909 7.83061 59.8051 7.58349C60.1778 9.46131 61.7628 11.0249 64.244 11.36L74.6754 12C75.1044 12 75.4556 12.3509 75.4556 12.7799V12.78C75.4556 13.2091 75.1049 13.56 74.6754 13.56H59.6774V7.57738L55.2162 7.34687V12.4642C55.2162 13.1804 54.6306 13.7662 53.9142 13.7662H47.0413C46.3249 13.7662 45.7393 13.1804 45.7393 12.4642V6.85789L41.2779 6.62784V11.7005C40.7679 9.78152 38.9968 8.39788 36.9059 8.39788L17.258 7.11331V18H21.506H21.8726ZM40.5692 6.4402V2H26.2596C24.1473 2 22.3617 3.46826 21.8726 5.43512V2.02186H13.3312L10.4203 6.43801H21.7407L40.5692 6.4402ZM15.3737 7.00442L8.31832 18H2.79956L10.2424 6.70832L15.3737 7.00442ZM79.5236 6.4402V2H64.244C61.7856 2 59.7693 3.9896 59.7251 6.43801L79.5236 6.4402ZM55.2162 6.43801V2.02229H59.6774V6.43801H55.2162Z" fill="white"/>
</svg>
