<svg width="86" height="20" viewBox="0 0 86 20" fill="none" xmlns="http://www.w3.org/2000/svg">
<path d="M40.5912 2.14053H38.0599C38.0599 2.14053 37.7633 2.33047 37.7633 2.78426C37.7633 3.33018 38.0599 3.45454 38.0599 3.45454H40.3135C43.5751 3.45454 45.6252 5.63158 45.6252 9.92267C45.6252 14.539 43.601 16.5449 40.0124 16.5449L38.5653 16.5443C38.3399 16.5443 38.1665 16.272 38.1648 16.1405C38.1648 15.282 38.159 9.86776 38.159 9.41394C38.159 7.18845 36.636 5.96589 34.1699 5.96589C32.5113 5.96589 31.3194 6.71108 30.6492 7.983C30.6492 7.56799 30.6492 6.80146 30.6492 6.58928C30.6492 6.37611 30.5157 6.2663 30.3342 6.2663C30.1517 6.2663 26.1594 6.2663 26.1594 6.2663C26.1594 6.2663 25.8865 6.50527 25.8865 6.9317C25.8865 7.39351 26.1588 7.57667 26.1588 7.57667C26.1588 7.57667 26.7983 7.57766 27.0929 7.57766C27.3413 7.57766 27.6033 7.84574 27.6033 8.14615C27.6033 8.39 27.6009 16.1486 27.6009 16.1486C27.6009 16.3188 27.3771 16.5213 27.2147 16.5213L26.3155 16.5233L25.9058 17.668C28.6272 17.6712 31.8685 17.6754 31.8685 17.6754C31.8685 17.6754 32.0768 17.479 32.0768 17.073C32.0768 16.6848 31.8718 16.5181 31.8718 16.5181H31.1686C30.9609 16.5181 30.8042 16.3421 30.8042 16.166V9.93301C31.3905 8.33997 32.5307 7.39839 33.469 7.39839C34.3599 7.39839 34.9219 8.06379 34.9219 9.06739C34.9219 9.5851 34.916 15.1586 34.9145 16.0791C34.9145 16.3349 34.7313 16.5181 34.5591 16.5181H33.7113C33.7113 16.5181 33.4787 16.6822 33.4787 17.073C33.4787 17.481 33.7194 17.6754 33.7194 17.6754L40.7301 17.6738C47.7167 17.6738 49.5159 13.4844 49.5159 9.91525C49.5159 4.30301 45.6204 2.14053 40.5912 2.14053Z" fill="white"/>
<path d="M20.8905 14.8314C20.4047 15.4661 19.6024 16.0071 18.7574 16.0071C17.6538 16.0071 17.0316 15.4612 17.0316 14.2315C17.0316 12.8126 17.6973 12.0325 20.8905 12.0325V14.8314ZM24.8923 16.5245C24.1381 16.4431 24.0453 15.998 24.034 15.4974V9.38325C24.034 8.48855 23.7204 7.45494 22.963 6.82179C22.023 6.03533 20.6531 5.82919 19.4599 5.82919C17.918 5.82919 16.7032 6.00143 15.4547 6.43423C15.3113 6.48591 15.2765 6.61994 15.2765 6.80467C15.2765 7.43228 15.2719 7.7737 15.2719 8.49012C15.2719 8.63549 15.3733 8.72273 15.4857 8.72273C15.4857 8.72273 16.0658 8.72173 16.1408 8.72173C16.2681 8.72173 16.3966 8.65161 16.5077 8.50856C16.8791 8.02822 17.3227 7.63801 17.6812 7.43551C18.0055 7.25301 18.5413 7.05274 19.0837 7.05274C20.3547 7.05274 20.8905 7.97497 20.8905 9.05861V10.7657C16.0881 10.4886 14.1194 11.9017 14.1194 14.1611C14.1194 16.75 15.9034 17.8304 17.6499 17.8304C19.2413 17.8304 20.4322 17.2271 21.0998 16.2994C21.2387 17.1047 21.7162 17.6647 22.3496 17.6647C22.659 17.6647 23.6367 17.6667 24.8535 17.6673L25.2615 16.5239L24.8923 16.5245Z" fill="white"/>
<path d="M57.2372 16.52L55.9161 16.5239C55.7143 16.5239 55.606 16.4034 55.606 16.2164C55.606 16.2164 55.5996 6.97039 55.5996 6.70231C55.5996 6.43424 55.5043 6.25819 55.1846 6.25819C54.8664 6.25819 51.1227 6.26042 51.1227 6.26042C51.1227 6.26042 50.8546 6.51337 50.8546 6.90581C50.8546 7.29668 51.1227 7.55343 51.1227 7.55343C51.1227 7.55343 52.1661 7.55889 52.2532 7.55889C52.3372 7.55889 52.4002 7.61967 52.4002 7.7327C52.4002 7.84739 52.3938 16.1961 52.3938 16.1961C52.3938 16.3785 52.2258 16.5239 52.0917 16.5239H50.7868C50.7868 16.5239 50.543 16.6854 50.543 17.0804C50.543 17.4509 50.7868 17.6699 50.7868 17.6699H57.2372C57.2372 17.6699 57.4487 17.4338 57.4487 17.0656C57.4487 16.6993 57.2372 16.52 57.2372 16.52Z" fill="white"/>
<path d="M7.26141 7.74303C5.03204 6.97526 4.57466 6.33243 4.57466 5.43129C4.57466 4.45258 5.4807 3.46743 7.42194 3.46743C8.10284 3.46743 8.80699 3.69672 9.47044 4.11182C9.88227 4.36857 10.3074 4.7859 10.7874 5.61378C10.8355 5.70325 10.9553 5.76138 11.0167 5.76238C11.2117 5.76304 11.7202 5.76461 11.7202 5.76461C11.8245 5.75816 11.8603 5.69292 11.8603 5.57178C11.8613 5.0744 11.8642 3.72905 11.8649 2.9335C11.8649 2.79558 11.7757 2.68411 11.6291 2.63566C10.3119 2.20121 9.02243 2.00003 7.29759 2.00003C4.12084 2.00003 2 3.80496 2 6.56504C2 9.27501 4.06077 10.4165 6.75171 11.2454C8.45039 11.7677 10.4646 12.4725 10.4646 14.1514C10.4646 15.1447 9.5528 16.2946 7.7204 16.2946C6.3134 16.2946 5.3909 15.802 4.85245 15.2442C4.31626 14.687 3.8014 14.1514 3.31753 13.1378C3.2636 13.0038 3.17444 12.8878 3.05913 12.8878C2.78361 12.8869 2.23773 12.8859 2.23773 12.8859C2.12468 12.8869 2.03844 12.9692 2.03844 13.134C2.03844 13.7751 2.03844 15.4929 2.03844 16.2164C2.03844 16.3356 2.10433 16.5149 2.22772 16.5869C3.81528 17.4848 5.88413 17.8385 7.60218 17.8298C10.6452 17.8094 13.0063 15.7907 13.0063 12.5438C13.0063 9.05861 9.80765 8.61994 7.26141 7.74303Z" fill="white"/>
<path d="M63.7005 10.4643C61.3652 9.90326 60.8903 9.49204 60.8903 8.6678C60.8903 7.97007 61.4944 7.23265 62.7105 7.23265C63.9169 7.23265 65.0442 7.9475 65.5626 8.77918C65.6321 8.89552 65.7322 8.94233 65.8791 8.94233C66.073 8.94233 66.3443 8.94233 66.4509 8.94233C66.5575 8.94233 66.6075 8.85352 66.6075 8.79051C66.6075 8.72816 66.6075 7.3709 66.6075 6.7724C66.6075 6.63993 66.5543 6.50044 66.3911 6.45198C65.5061 6.19093 64.1624 6.01588 62.6895 6.01588C60.7224 6.01588 58.5874 7.14483 58.5874 9.56473C58.5874 11.6423 60.2669 12.7706 61.706 13.162C64.156 13.8245 64.8665 14.1724 64.8665 15.2183C64.8665 16.1243 64.156 16.6708 62.9204 16.6708C61.6833 16.6708 60.5221 15.759 59.8325 14.1353C59.7243 13.9699 59.6598 13.9117 59.5466 13.9117C59.2027 13.9027 58.8571 13.9117 58.7634 13.9117C58.6713 13.9117 58.5599 13.9615 58.5599 14.124C58.5583 14.7118 58.5631 16.3585 58.5631 16.5045C58.5631 16.6902 58.8134 16.8863 58.8134 16.8863C58.8134 16.8863 59.5273 17.3233 60.3186 17.5946C60.9776 17.8217 61.7835 18 62.9269 18C65.8194 18 67.2035 16.2047 67.2035 14.111C67.2035 12.2192 66.1279 11.0473 63.7005 10.4643Z" fill="white"/>
<path d="M52.6456 4.66577L55.5511 4.66255C55.719 4.66255 55.8337 4.58507 55.8693 4.45483L56.5411 2.3757C56.5896 2.20288 56.4781 2.11473 56.3166 2.11473L53.2707 2.11796C53.1253 2.11796 53.0333 2.21098 53.001 2.34014L52.4421 4.25398C52.355 4.47426 52.468 4.66577 52.6456 4.66577Z" fill="white"/>
<path d="M81.5271 16.5278C80.839 16.5278 80.3093 16.3178 80.0089 15.8634C79.8733 15.6615 76.2507 10.1333 76.1748 10.0002C77.089 8.73564 77.567 8.26795 78.3696 7.84739C78.9042 7.56542 79.891 7.35639 80.6355 7.35639C80.642 7.35639 80.8148 7.21912 80.8148 6.81113C80.8148 6.41001 80.629 6.25174 80.629 6.25174L77.0049 6.25497C76.8709 6.25331 76.6916 6.35833 76.5673 6.5376C76.4866 6.65287 73.6409 10.7437 72.8802 11.8403C72.8802 7.86029 72.8818 2.61467 72.8818 2.52751C72.8818 2.30136 72.7446 2.1244 72.4748 2.1244C72.2068 2.1244 67.9366 2.12275 67.9366 2.12275C67.9366 2.12275 67.7153 2.29491 67.7153 2.6809C67.7153 3.06755 67.935 3.28172 67.935 3.28172C67.935 3.28172 69.2271 3.28172 69.4031 3.28172C69.5824 3.28172 69.6615 3.36631 69.6615 3.55145C69.6615 3.73717 69.6598 16.2451 69.6598 16.2451C69.6598 16.4254 69.571 16.5126 69.445 16.5126L68.0481 16.5094C68.0481 16.5094 67.8236 16.7113 67.8236 17.0753C67.8236 17.439 68.0481 17.6699 68.0481 17.6699L74.1125 17.6648C74.1125 17.6648 74.2821 17.4083 74.2821 17.0675C74.2821 16.7274 74.1125 16.5126 74.1125 16.5126L73.1177 16.5149C72.9916 16.5149 72.8786 16.4092 72.8786 16.2536C72.8786 16.2536 72.8786 15.0278 72.8786 13.3084C73.1612 13.0135 73.6764 12.4815 73.7443 12.4104C73.9251 12.2263 74.1254 12.2942 74.2271 12.4557C74.345 12.6472 76.6545 16.187 76.7094 16.2794C76.816 16.4561 76.7514 16.5342 76.6206 16.5342L75.9035 16.541C75.9035 16.541 75.7307 16.8072 75.7307 17.1021C75.7307 17.396 75.8858 17.6648 75.8858 17.6648L81.9356 17.6754C81.9356 17.6754 82.1246 17.4299 82.1246 17.1118C82.1246 16.7946 81.9049 16.5278 81.9049 16.5278C81.9049 16.5278 81.737 16.5278 81.5271 16.5278Z" fill="white"/>
<path d="M83.3812 6.87511C83.3311 6.91223 83.2601 6.93001 83.1696 6.93001H83.021V6.50846H83.113C83.2116 6.50846 83.2826 6.51822 83.3375 6.53591C83.4167 6.56659 83.4539 6.62381 83.4539 6.70295C83.4539 6.78307 83.4329 6.84186 83.3812 6.87511ZM83.8237 7.62509C83.8237 7.61054 83.8204 7.59541 83.8204 7.58251V7.45004C83.8204 7.29823 83.7769 7.19007 83.6881 7.12383C83.6396 7.08671 83.5701 7.05917 83.4748 7.04148C83.5766 7.03172 83.6622 6.99782 83.73 6.94291C83.7994 6.88643 83.8366 6.7982 83.8366 6.67706C83.8366 6.51491 83.7704 6.39865 83.6396 6.32828C83.5637 6.28562 83.4668 6.26205 83.3521 6.25328C83.3311 6.25328 83.231 6.25171 83.0501 6.25171C82.866 6.24849 82.7287 6.24849 82.6399 6.24849V7.70911H83.021V7.18676H83.1018L83.1857 7.19329C83.2439 7.19652 83.2859 7.2052 83.315 7.21587C83.3682 7.23753 83.4054 7.27077 83.4231 7.32411C83.4345 7.35478 83.4441 7.41614 83.449 7.50495C83.4539 7.59541 83.4619 7.66321 83.4732 7.70911H83.8414L83.8318 7.66875C83.8285 7.6542 83.8253 7.63965 83.8237 7.62509Z" fill="white"/>
<path d="M83.9835 7.75523C83.7703 7.96683 83.5167 8.07507 83.218 8.07507C82.9192 8.07507 82.6624 7.96849 82.4509 7.75589C82.2376 7.54371 82.131 7.28365 82.131 6.98002C82.131 6.68515 82.2376 6.43576 82.446 6.21936C82.6576 6.0014 82.9175 5.89216 83.218 5.89216C83.5167 5.89216 83.7719 6.0014 83.9867 6.21936C84.195 6.43576 84.3 6.68771 84.3 6.98002C84.3 7.28208 84.195 7.53883 83.9835 7.75523ZM84.1514 6.04497C83.893 5.78401 83.5797 5.6541 83.2163 5.6541C82.8675 5.6541 82.5655 5.77524 82.3087 6.01587C82.0342 6.27105 81.8953 6.58923 81.8953 6.9768C81.8953 7.34832 82.0229 7.66221 82.2748 7.91515C82.5316 8.16934 82.8433 8.29626 83.2163 8.29626C83.5748 8.29626 83.8849 8.17198 84.1401 7.92483C84.405 7.66708 84.5374 7.35154 84.5374 6.9768C84.5374 6.61181 84.4066 6.30081 84.1514 6.04497Z" fill="white"/>
</svg>
