<svg width="265" height="46" viewBox="0 0 265 46" fill="none" xmlns="http://www.w3.org/2000/svg">
<path fill-rule="evenodd" clip-rule="evenodd" d="M42.8588 31.9801L0 7.76556L0 0.0615234L6.62658 0.0615234L42.8588 20.5322V31.9801Z" fill="url(#paint0_linear)"/>
<path d="M0 26.3084L15.6152 35.1127L0 42.9203L0 26.3084Z" fill="url(#paint1_linear)"/>
<path d="M42.8586 16.6734L27.2434 7.86911L42.8586 0.0615118V16.6734Z" fill="url(#paint2_linear)"/>
<path fill-rule="evenodd" clip-rule="evenodd" d="M36.3249 42.9203L0 22.3973L0 10.9493L42.8588 35.1639V42.9203H36.3249Z" fill="url(#paint3_linear)"/>
<path d="M79.285 30.0615H74.8808L61.6296 10.0109V30.0615H57.2254V3.1728L61.6296 3.1728L74.8808 23.1848V3.1728H79.285V30.0615ZM104.578 18.8965C104.578 19.6949 104.527 20.4161 104.424 21.06H88.1591C88.2879 22.7599 88.9189 24.1249 90.0522 25.1551C91.1854 26.1853 92.5762 26.7004 94.2246 26.7004C96.5941 26.7004 98.2682 25.7089 99.2469 23.7257H103.999C103.355 25.6831 102.183 27.2928 100.483 28.5548C98.809 29.7911 96.7228 30.4092 94.2246 30.4092C92.1899 30.4092 90.3612 29.9585 88.7386 29.0571C87.1418 28.1299 85.8798 26.8421 84.9526 25.1937C84.0511 23.5196 83.6004 21.588 83.6004 19.3988C83.6004 17.2095 84.0383 15.2908 84.9139 13.6424C85.8154 11.9683 87.0645 10.6805 88.6614 9.77908C90.284 8.87764 92.1384 8.42692 94.2246 8.42692C96.2335 8.42692 98.0235 8.86476 99.5946 9.74045C101.166 10.6161 102.389 11.8524 103.265 13.4492C104.14 15.0203 104.578 16.8361 104.578 18.8965ZM99.9809 17.5057C99.9551 15.8831 99.3756 14.5825 98.2424 13.6038C97.1092 12.6251 95.7055 12.1357 94.0314 12.1357C92.5118 12.1357 91.2112 12.6251 90.1294 13.6038C89.0477 14.5567 88.4038 15.8574 88.1978 17.5057H99.9809ZM118.03 19.2829L124.907 30.0615H119.923L115.326 22.8371L110.999 30.0615H106.401L113.278 19.5919L106.401 8.77462H111.385L115.982 15.999L120.309 8.77462H124.907L118.03 19.2829ZM133.33 12.3675V24.1506C133.33 24.9491 133.51 25.5286 133.87 25.8891C134.257 26.224 134.901 26.3914 135.802 26.3914H138.506V30.0615H135.029C133.046 30.0615 131.527 29.5979 130.471 28.6707C129.415 27.7435 128.887 26.2368 128.887 24.1506V12.3675H126.376V8.77462H128.887V3.48186L133.33 3.48186V8.77462L138.506 8.77462V12.3675L133.33 12.3675Z" fill="#003EAB"/>
<path d="M167.175 3.6364V30.0615H166.402V5.52942L155.469 30.0615H154.696L143.725 5.52942V30.0615H142.952V3.6364H143.725L155.083 29.0571L166.402 3.6364H167.175ZM172.772 19.6306C172.772 17.4413 173.197 15.5483 174.047 13.9515C174.897 12.3289 176.094 11.0926 177.64 10.2427C179.185 9.36699 180.949 8.92915 182.933 8.92915C185.328 8.92915 187.35 9.56016 188.998 10.8222C190.672 12.0584 191.792 13.6424 192.359 15.5741V9.19958H193.093V30.0615H192.359V23.687C191.792 25.6187 190.672 27.2156 188.998 28.4776C187.35 29.7138 185.328 30.332 182.933 30.332C180.949 30.332 179.185 29.907 177.64 29.0571C176.094 28.1814 174.897 26.9451 174.047 25.3483C173.197 23.7257 172.772 21.8198 172.772 19.6306ZM192.359 19.6306C192.359 17.6474 191.947 15.9089 191.123 14.4151C190.324 12.8955 189.204 11.7236 187.762 10.8994C186.345 10.0495 184.735 9.62455 182.933 9.62455C181.027 9.62455 179.365 10.0238 177.949 10.8222C176.558 11.6206 175.476 12.7796 174.704 14.2992C173.931 15.793 173.545 17.5701 173.545 19.6306C173.545 21.691 173.931 23.481 174.704 25.0006C175.476 26.4944 176.558 27.6405 177.949 28.4389C179.365 29.2374 181.027 29.6366 182.933 29.6366C184.735 29.6366 186.345 29.2245 187.762 28.4003C189.204 27.5504 190.324 26.3785 191.123 24.8847C191.947 23.3651 192.359 21.6137 192.359 19.6306ZM200.429 14.2605C201.254 10.5775 203.997 8.73598 208.658 8.73598V9.58591H208.311C206.121 9.58591 204.254 10.2298 202.709 11.5176C201.189 12.7796 200.429 14.8272 200.429 17.6603V30.0615H199.657V9.19958H200.429V14.2605ZM223.103 30.0615L213.483 20.2873V30.0615H212.711V1.47293H213.483V18.742L222.91 9.19958H224.03L213.754 19.5533L224.185 30.0615H223.103ZM237.031 29.6366C239.375 29.6366 241.345 29.0442 242.942 27.8594C244.539 26.6747 245.505 25.0521 245.84 22.9917H246.612C246.252 25.1809 245.222 26.958 243.522 28.323C241.848 29.6623 239.684 30.332 237.031 30.332C235.1 30.332 233.374 29.907 231.855 29.0571C230.335 28.2071 229.137 26.9709 228.262 25.3483C227.412 23.7257 226.987 21.8198 226.987 19.6306C226.987 17.4413 227.412 15.5354 228.262 13.9128C229.137 12.2902 230.335 11.054 231.855 10.204C233.374 9.35412 235.1 8.92915 237.031 8.92915C239.066 8.92915 240.805 9.36699 242.247 10.2427C243.689 11.0926 244.771 12.2001 245.492 13.5651C246.239 14.9302 246.612 16.3725 246.612 17.8921C246.612 18.8193 246.6 19.5147 246.574 19.9783H227.759C227.785 22.116 228.223 23.906 229.073 25.3483C229.949 26.7906 231.082 27.8723 232.473 28.5935C233.864 29.2889 235.383 29.6366 237.031 29.6366ZM237.031 9.62455C235.383 9.62455 233.864 9.98512 232.473 10.7063C231.082 11.4017 229.949 12.4705 229.073 13.9128C228.223 15.3551 227.785 17.1452 227.759 19.2829H245.917C246.046 17.1452 245.698 15.3551 244.874 13.9128C244.076 12.4705 242.968 11.4017 241.552 10.7063C240.161 9.98512 238.654 9.62455 237.031 9.62455ZM253.873 9.97225V24.5756C253.873 25.8376 254.014 26.8035 254.298 27.4731C254.581 28.1427 255.032 28.6192 255.65 28.9025C256.268 29.1601 257.131 29.2889 258.238 29.2889H260.44V30.0615H258.161C256.358 30.0615 255.058 29.6494 254.259 28.8253C253.486 28.0011 253.1 26.5845 253.1 24.5756V9.97225H249.7V9.19958H253.1V3.86819H253.873V9.19958H260.44V9.97225H253.873Z" fill="black"/>
<path d="M60.58 37.3803V37.8354H59.0577L59.0577 42.8656H58.5083V37.8354H56.9781V37.3803H60.58ZM63.4877 38.5025C63.8121 38.5025 64.1025 38.5705 64.3588 38.7065C64.6204 38.8425 64.8244 39.0518 64.9709 39.3343C65.1226 39.6116 65.1985 39.9516 65.1985 40.3545V42.8656H64.657V40.4172C64.657 39.9516 64.5393 39.5959 64.3039 39.35C64.0737 39.1041 63.7572 38.9812 63.3543 38.9812C62.941 38.9812 62.6115 39.112 62.3656 39.3735C62.1197 39.6351 61.9967 40.0196 61.9967 40.5271L61.9967 42.8656H61.4474V37.0586H61.9967V39.3108C62.1328 39.0544 62.3316 38.8556 62.5931 38.7144C62.86 38.5731 63.1582 38.5025 63.4877 38.5025ZM70.2899 40.5036C70.2899 40.6919 70.2847 40.8358 70.2743 40.9352H66.7194C66.7351 41.2595 66.8136 41.5368 66.9548 41.767C67.0961 41.9972 67.2818 42.1724 67.512 42.2928C67.7422 42.4079 67.9933 42.4654 68.2653 42.4654C68.6211 42.4654 68.9193 42.3791 69.1599 42.2064C69.4058 42.0338 69.568 41.801 69.6465 41.508H70.2272C70.1225 41.9265 69.8976 42.2692 69.5523 42.536C69.2122 42.7976 68.7833 42.9284 68.2653 42.9284C67.8625 42.9284 67.5015 42.8395 67.1824 42.6616C66.8633 42.4785 66.6121 42.2221 66.429 41.8925C66.2512 41.5577 66.1622 41.168 66.1622 40.7233C66.1622 40.2786 66.2512 39.8888 66.429 39.554C66.6069 39.2192 66.8554 38.9629 67.1745 38.785C67.4937 38.6071 67.8573 38.5182 68.2653 38.5182C68.6734 38.5182 69.0291 38.6071 69.3326 38.785C69.6412 38.9629 69.8767 39.2035 70.0388 39.5069C70.2062 39.8051 70.2899 40.1373 70.2899 40.5036ZM69.7328 40.4879C69.738 40.1687 69.6726 39.8967 69.5366 39.6717C69.4058 39.4468 69.2253 39.2768 68.9951 39.1617C68.7649 39.0466 68.5138 38.989 68.2418 38.989C67.8337 38.989 67.4858 39.1198 67.1981 39.3814C66.9103 39.643 66.7508 40.0118 66.7194 40.4879H69.7328ZM73.9977 37.0586V42.8656H73.4484V37.0586H73.9977ZM74.9905 40.7154C74.9905 40.276 75.0768 39.8915 75.2495 39.5619C75.4274 39.2271 75.6706 38.9707 75.9793 38.7928C76.2932 38.6097 76.6463 38.5182 77.0387 38.5182C77.4468 38.5182 77.7973 38.6123 78.0902 38.8007C78.3884 38.989 78.6029 39.2297 78.7337 39.5226V38.581H79.283V42.8656H78.7337V41.9161C78.5977 42.2091 78.3806 42.4523 78.0824 42.6459C77.7894 42.8342 77.4389 42.9284 77.0308 42.9284C76.6437 42.9284 76.2932 42.8368 75.9793 42.6537C75.6706 42.4706 75.4274 42.2117 75.2495 41.8768C75.0768 41.542 74.9905 41.1549 74.9905 40.7154ZM78.7337 40.7233C78.7337 40.378 78.6631 40.0746 78.5218 39.813C78.3806 39.5514 78.187 39.35 77.9411 39.2087C77.7005 39.0675 77.4337 38.9969 77.1407 38.9969C76.8373 38.9969 76.5652 39.0649 76.3246 39.2009C76.0839 39.3369 75.893 39.5357 75.7517 39.7973C75.6157 40.0536 75.5477 40.3597 75.5477 40.7154C75.5477 41.066 75.6157 41.3746 75.7517 41.6414C75.893 41.903 76.0839 42.1044 76.3246 42.2457C76.5652 42.3817 76.8373 42.4497 77.1407 42.4497C77.4337 42.4497 77.7005 42.3791 77.9411 42.2378C78.187 42.0966 78.3806 41.8952 78.5218 41.6336C78.6631 41.372 78.7337 41.0686 78.7337 40.7233ZM81.2512 39.0439V41.7042C81.2512 41.9658 81.3009 42.1463 81.4003 42.2457C81.4997 42.3451 81.675 42.3948 81.9261 42.3948H82.4283V42.8656H81.8398C81.4526 42.8656 81.1649 42.7767 80.9765 42.5988C80.7882 42.4157 80.694 42.1175 80.694 41.7042V39.0439H80.0976V38.581H80.694V37.5059H81.2512V38.581H82.4283V39.0439H81.2512ZM87.2109 40.5036C87.2109 40.6919 87.2056 40.8358 87.1952 40.9352H83.6403C83.656 41.2595 83.7345 41.5368 83.8757 41.767C84.017 41.9972 84.2027 42.1724 84.4329 42.2928C84.6631 42.4079 84.9142 42.4654 85.1862 42.4654C85.542 42.4654 85.8402 42.3791 86.0808 42.2064C86.3267 42.0338 86.4889 41.801 86.5674 41.508H87.1481C87.0434 41.9265 86.8185 42.2692 86.4732 42.536C86.1331 42.7976 85.7042 42.9284 85.1862 42.9284C84.7834 42.9284 84.4224 42.8395 84.1033 42.6616C83.7842 42.4785 83.533 42.2221 83.3499 41.8925C83.1721 41.5577 83.0831 41.168 83.0831 40.7233C83.0831 40.2786 83.1721 39.8888 83.3499 39.554C83.5278 39.2192 83.7763 38.9629 84.0954 38.785C84.4146 38.6071 84.7782 38.5182 85.1862 38.5182C85.5943 38.5182 85.95 38.6071 86.2535 38.785C86.5621 38.9629 86.7976 39.2035 86.9597 39.5069C87.1271 39.8051 87.2109 40.1373 87.2109 40.5036ZM86.6537 40.4879C86.6589 40.1687 86.5935 39.8967 86.4575 39.6717C86.3267 39.4468 86.1462 39.2768 85.916 39.1617C85.6858 39.0466 85.4347 38.989 85.1627 38.989C84.7546 38.989 84.4067 39.1198 84.119 39.3814C83.8312 39.643 83.6717 40.0118 83.6403 40.4879H86.6537ZM89.6912 42.9284C89.1994 42.9284 88.7966 42.8159 88.4827 42.591C88.174 42.3608 88.0014 42.0495 87.9648 41.6571H88.5298C88.5559 41.8978 88.6684 42.094 88.8672 42.2457C89.0712 42.3922 89.3433 42.4654 89.6833 42.4654C89.9815 42.4654 90.2143 42.3948 90.3817 42.2535C90.5544 42.1123 90.6407 41.937 90.6407 41.7277C90.6407 41.5813 90.5936 41.4609 90.4995 41.3668C90.4053 41.2726 90.285 41.1994 90.1385 41.147C89.9972 41.0895 89.8037 41.0293 89.5578 40.9666C89.2386 40.8828 88.9797 40.7991 88.7809 40.7154C88.5821 40.6317 88.4121 40.5088 88.2708 40.3466C88.1348 40.1792 88.0668 39.9569 88.0668 39.6796C88.0668 39.4703 88.1295 39.2768 88.2551 39.0989C88.3807 38.921 88.5585 38.7798 88.7887 38.6751C89.0189 38.5705 89.2805 38.5182 89.5735 38.5182C90.0338 38.5182 90.4053 38.6359 90.6878 38.8713C90.9703 39.1015 91.122 39.4206 91.1429 39.8287H90.5936C90.5779 39.5776 90.4785 39.3762 90.2954 39.2244C90.1176 39.0675 89.8717 38.989 89.5578 38.989C89.2805 38.989 89.0555 39.0544 88.8829 39.1852C88.7103 39.316 88.6239 39.4782 88.6239 39.6717C88.6239 39.8391 88.6736 39.9778 88.773 40.0876C88.8777 40.1923 89.0058 40.276 89.1576 40.3388C89.3093 40.3963 89.5133 40.4617 89.7697 40.5349C90.0783 40.6187 90.3242 40.6997 90.5073 40.7782C90.6904 40.8567 90.8474 40.9718 90.9781 41.1235C91.1089 41.2752 91.1769 41.4766 91.1822 41.7277C91.1822 41.9579 91.1194 42.1646 90.9938 42.3477C90.8683 42.5256 90.693 42.6668 90.4681 42.7715C90.2431 42.8761 89.9841 42.9284 89.6912 42.9284ZM92.9303 39.0439V41.7042C92.9303 41.9658 92.98 42.1463 93.0794 42.2457C93.1788 42.3451 93.3541 42.3948 93.6052 42.3948H94.1074V42.8656H93.5189C93.1317 42.8656 92.844 42.7767 92.6556 42.5988C92.4673 42.4157 92.3731 42.1175 92.3731 41.7042V39.0439H91.7767V38.581H92.3731V37.5059L92.9303 37.5059V38.581H94.1074V39.0439H92.9303ZM98.6421 42.9284C98.1503 42.9284 97.7475 42.8159 97.4336 42.591C97.1249 42.3608 96.9523 42.0495 96.9157 41.6571H97.4807C97.5068 41.8978 97.6193 42.094 97.8181 42.2457C98.0221 42.3922 98.2942 42.4654 98.6342 42.4654C98.9324 42.4654 99.1652 42.3948 99.3327 42.2535C99.5053 42.1123 99.5916 41.937 99.5916 41.7277C99.5916 41.5813 99.5445 41.4609 99.4504 41.3668C99.3562 41.2726 99.2359 41.1994 99.0894 41.147C98.9481 41.0895 98.7546 41.0293 98.5087 40.9666C98.1896 40.8828 97.9306 40.7991 97.7318 40.7154C97.533 40.6317 97.363 40.5088 97.2217 40.3466C97.0857 40.1792 97.0177 39.9569 97.0177 39.6796C97.0177 39.4703 97.0805 39.2768 97.206 39.0989C97.3316 38.921 97.5095 38.7798 97.7396 38.6751C97.9698 38.5705 98.2314 38.5182 98.5244 38.5182C98.9848 38.5182 99.3562 38.6359 99.6387 38.8713C99.9212 39.1015 100.073 39.4206 100.094 39.8287H99.5445C99.5288 39.5776 99.4294 39.3762 99.2463 39.2244C99.0685 39.0675 98.8226 38.989 98.5087 38.989C98.2314 38.989 98.0065 39.0544 97.8338 39.1852C97.6612 39.316 97.5748 39.4782 97.5748 39.6717C97.5748 39.8391 97.6245 39.9778 97.7239 40.0876C97.8286 40.1923 97.9568 40.276 98.1085 40.3388C98.2602 40.3963 98.4642 40.4617 98.7206 40.5349C99.0292 40.6187 99.2751 40.6997 99.4582 40.7782C99.6413 40.8567 99.7983 40.9718 99.9291 41.1235C100.06 41.2752 100.128 41.4766 100.133 41.7277C100.133 41.9579 100.07 42.1646 99.9448 42.3477C99.8192 42.5256 99.6439 42.6668 99.419 42.7715C99.194 42.8761 98.9351 42.9284 98.6421 42.9284ZM103.207 38.5025C103.532 38.5025 103.822 38.5705 104.078 38.7065C104.34 38.8425 104.544 39.0518 104.691 39.3343C104.842 39.6116 104.918 39.9516 104.918 40.3545V42.8656H104.377V40.4172C104.377 39.9516 104.259 39.5959 104.024 39.35C103.793 39.1041 103.477 38.9812 103.074 38.9812C102.661 38.9812 102.331 39.112 102.085 39.3735C101.839 39.6351 101.716 40.0196 101.716 40.5271V42.8656H101.167V37.0586H101.716V39.3108C101.852 39.0544 102.051 38.8556 102.313 38.7144C102.58 38.5731 102.878 38.5025 103.207 38.5025ZM108.009 42.9284C107.606 42.9284 107.242 42.8395 106.918 42.6616C106.599 42.4785 106.345 42.2221 106.157 41.8925C105.973 41.5577 105.882 41.168 105.882 40.7233C105.882 40.2786 105.976 39.8915 106.164 39.5619C106.353 39.2271 106.609 38.9707 106.933 38.7928C107.258 38.6097 107.621 38.5182 108.024 38.5182C108.427 38.5182 108.791 38.6097 109.115 38.7928C109.445 38.9707 109.701 39.2271 109.884 39.5619C110.072 39.8915 110.167 40.2786 110.167 40.7233C110.167 41.1627 110.072 41.5499 109.884 41.8847C109.696 42.2195 109.437 42.4785 109.107 42.6616C108.778 42.8395 108.411 42.9284 108.009 42.9284ZM108.009 42.4497C108.291 42.4497 108.553 42.3869 108.793 42.2614C109.034 42.1306 109.228 41.937 109.374 41.6807C109.526 41.4191 109.602 41.1 109.602 40.7233C109.602 40.3466 109.528 40.0301 109.382 39.7738C109.235 39.5122 109.042 39.3186 108.801 39.193C108.56 39.0623 108.299 38.9969 108.016 38.9969C107.734 38.9969 107.472 39.0623 107.232 39.193C106.991 39.3186 106.797 39.5122 106.651 39.7738C106.51 40.0301 106.439 40.3466 106.439 40.7233C106.439 41.1 106.51 41.4191 106.651 41.6807C106.797 41.937 106.988 42.1306 107.224 42.2614C107.464 42.3869 107.726 42.4497 108.009 42.4497ZM111.709 39.5226C111.845 39.2349 112.06 38.9969 112.353 38.8085C112.651 38.615 113.004 38.5182 113.412 38.5182C113.799 38.5182 114.147 38.6097 114.456 38.7928C114.77 38.9707 115.013 39.2271 115.186 39.5619C115.364 39.8915 115.453 40.276 115.453 40.7154C115.453 41.1549 115.364 41.542 115.186 41.8768C115.013 42.2117 114.77 42.4706 114.456 42.6537C114.147 42.8368 113.799 42.9284 113.412 42.9284C113.009 42.9284 112.659 42.8342 112.361 42.6459C112.063 42.4523 111.845 42.2117 111.709 41.9239V44.8902H111.168V38.581H111.709V39.5226ZM114.895 40.7154C114.895 40.3597 114.825 40.0536 114.684 39.7973C114.548 39.5357 114.359 39.3369 114.119 39.2009C113.878 39.0649 113.606 38.9969 113.302 38.9969C113.009 38.9969 112.74 39.0675 112.494 39.2087C112.253 39.35 112.063 39.5514 111.921 39.813C111.78 40.0746 111.709 40.378 111.709 40.7233C111.709 41.0686 111.78 41.372 111.921 41.6336C112.063 41.8952 112.253 42.0966 112.494 42.2378C112.74 42.3791 113.009 42.4497 113.302 42.4497C113.606 42.4497 113.878 42.3817 114.119 42.2457C114.359 42.1044 114.548 41.903 114.684 41.6414C114.825 41.3746 114.895 41.066 114.895 40.7154ZM117.005 39.5226C117.141 39.2349 117.355 38.9969 117.648 38.8085C117.947 38.615 118.3 38.5182 118.708 38.5182C119.095 38.5182 119.443 38.6097 119.751 38.7928C120.065 38.9707 120.309 39.2271 120.481 39.5619C120.659 39.8915 120.748 40.276 120.748 40.7154C120.748 41.1549 120.659 41.542 120.481 41.8768C120.309 42.2117 120.065 42.4706 119.751 42.6537C119.443 42.8368 119.095 42.9284 118.708 42.9284C118.305 42.9284 117.954 42.8342 117.656 42.6459C117.358 42.4523 117.141 42.2117 117.005 41.9239V44.8902H116.463V38.581H117.005V39.5226ZM120.191 40.7154C120.191 40.3597 120.12 40.0536 119.979 39.7973C119.843 39.5357 119.655 39.3369 119.414 39.2009C119.173 39.0649 118.901 38.9969 118.598 38.9969C118.305 38.9969 118.035 39.0675 117.79 39.2087C117.549 39.35 117.358 39.5514 117.217 39.813C117.075 40.0746 117.005 40.378 117.005 40.7233C117.005 41.0686 117.075 41.372 117.217 41.6336C117.358 41.8952 117.549 42.0966 117.79 42.2378C118.035 42.3791 118.305 42.4497 118.598 42.4497C118.901 42.4497 119.173 42.3817 119.414 42.2457C119.655 42.1044 119.843 41.903 119.979 41.6414C120.12 41.3746 120.191 41.066 120.191 40.7154ZM122.033 37.7727C121.924 37.7727 121.829 37.7334 121.751 37.655C121.672 37.5765 121.633 37.4797 121.633 37.3646C121.633 37.2495 121.672 37.1553 121.751 37.0821C121.829 37.0036 121.924 36.9644 122.033 36.9644C122.143 36.9644 122.237 37.0036 122.316 37.0821C122.394 37.1553 122.434 37.2495 122.434 37.3646C122.434 37.4797 122.394 37.5765 122.316 37.655C122.237 37.7334 122.143 37.7727 122.033 37.7727ZM122.308 38.581V42.8656H121.759V38.581H122.308ZM125.561 38.5025C126.074 38.5025 126.492 38.662 126.817 38.9812C127.141 39.2951 127.303 39.7528 127.303 40.3545V42.8656H126.762V40.4172C126.762 39.9516 126.644 39.5959 126.408 39.35C126.178 39.1041 125.862 38.9812 125.459 38.9812C125.046 38.9812 124.716 39.112 124.47 39.3735C124.224 39.6351 124.101 40.0196 124.101 40.5271V42.8656H123.552V38.581H124.101V39.3108C124.237 39.0492 124.434 38.8504 124.69 38.7144C124.946 38.5731 125.237 38.5025 125.561 38.5025ZM130.315 38.5182C130.718 38.5182 131.068 38.6123 131.367 38.8007C131.665 38.989 131.879 39.2271 132.01 39.5148V38.581H132.559V42.9755C132.559 43.3679 132.473 43.7158 132.3 44.0192C132.133 44.3226 131.898 44.5554 131.594 44.7176C131.291 44.885 130.945 44.9687 130.558 44.9687C130.009 44.9687 129.551 44.8379 129.185 44.5763C128.824 44.3148 128.599 43.959 128.51 43.5091H129.052C129.146 43.8073 129.324 44.0453 129.585 44.2232C129.852 44.4011 130.176 44.49 130.558 44.49C130.836 44.49 131.084 44.4299 131.304 44.3095C131.524 44.1944 131.696 44.0218 131.822 43.7916C131.947 43.5614 132.01 43.2894 132.01 42.9755V41.9161C131.874 42.2091 131.657 42.4523 131.359 42.6459C131.066 42.8342 130.718 42.9284 130.315 42.9284C129.923 42.9284 129.57 42.8368 129.256 42.6537C128.947 42.4706 128.704 42.2117 128.526 41.8768C128.353 41.542 128.267 41.1549 128.267 40.7154C128.267 40.276 128.353 39.8915 128.526 39.5619C128.704 39.2271 128.947 38.9707 129.256 38.7928C129.57 38.6097 129.923 38.5182 130.315 38.5182ZM132.01 40.7233C132.01 40.378 131.939 40.0746 131.798 39.813C131.657 39.5514 131.463 39.35 131.217 39.2087C130.977 39.0675 130.71 38.9969 130.417 38.9969C130.114 38.9969 129.842 39.0649 129.601 39.2009C129.36 39.3369 129.169 39.5357 129.028 39.7973C128.892 40.0536 128.824 40.3597 128.824 40.7154C128.824 41.066 128.892 41.3746 129.028 41.6414C129.169 41.903 129.36 42.1044 129.601 42.2457C129.842 42.3817 130.114 42.4497 130.417 42.4497C130.71 42.4497 130.977 42.3791 131.217 42.2378C131.463 42.0966 131.657 41.8952 131.798 41.6336C131.939 41.372 132.01 41.0686 132.01 40.7233ZM137.764 38.5182C138.167 38.5182 138.517 38.6123 138.815 38.8007C139.114 38.989 139.328 39.2271 139.459 39.5148V38.581H140.008V42.9755C140.008 43.3679 139.922 43.7158 139.749 44.0192C139.582 44.3226 139.346 44.5554 139.043 44.7176C138.74 44.885 138.394 44.9687 138.007 44.9687C137.458 44.9687 137 44.8379 136.634 44.5763C136.273 44.3148 136.048 43.959 135.959 43.5091H136.5C136.595 43.8073 136.773 44.0453 137.034 44.2232C137.301 44.4011 137.625 44.49 138.007 44.49C138.284 44.49 138.533 44.4299 138.753 44.3095C138.972 44.1944 139.145 44.0218 139.271 43.7916C139.396 43.5614 139.459 43.2894 139.459 42.9755V41.9161C139.323 42.2091 139.106 42.4523 138.808 42.6459C138.515 42.8342 138.167 42.9284 137.764 42.9284C137.372 42.9284 137.018 42.8368 136.705 42.6537C136.396 42.4706 136.153 42.2117 135.975 41.8768C135.802 41.542 135.716 41.1549 135.716 40.7154C135.716 40.276 135.802 39.8915 135.975 39.5619C136.153 39.2271 136.396 38.9707 136.705 38.7928C137.018 38.6097 137.372 38.5182 137.764 38.5182ZM139.459 40.7233C139.459 40.378 139.388 40.0746 139.247 39.813C139.106 39.5514 138.912 39.35 138.666 39.2087C138.426 39.0675 138.159 38.9969 137.866 38.9969C137.562 38.9969 137.29 39.0649 137.05 39.2009C136.809 39.3369 136.618 39.5357 136.477 39.7973C136.341 40.0536 136.273 40.3597 136.273 40.7154C136.273 41.066 136.341 41.3746 136.477 41.6414C136.618 41.903 136.809 42.1044 137.05 42.2457C137.29 42.3817 137.562 42.4497 137.866 42.4497C138.159 42.4497 138.426 42.3791 138.666 42.2378C138.912 42.0966 139.106 41.8952 139.247 41.6336C139.388 41.372 139.459 41.0686 139.459 40.7233ZM145.139 40.5036C145.139 40.6919 145.134 40.8358 145.123 40.9352H141.568C141.584 41.2595 141.663 41.5368 141.804 41.767C141.945 41.9972 142.131 42.1724 142.361 42.2928C142.591 42.4079 142.842 42.4654 143.114 42.4654C143.47 42.4654 143.768 42.3791 144.009 42.2064C144.255 42.0338 144.417 41.801 144.495 41.508H145.076C144.971 41.9265 144.747 42.2692 144.401 42.536C144.061 42.7976 143.632 42.9284 143.114 42.9284C142.711 42.9284 142.35 42.8395 142.031 42.6616C141.712 42.4785 141.461 42.2221 141.278 41.8925C141.1 41.5577 141.011 41.168 141.011 40.7233C141.011 40.2786 141.1 39.8888 141.278 39.554C141.456 39.2192 141.704 38.9629 142.023 38.785C142.343 38.6071 142.706 38.5182 143.114 38.5182C143.522 38.5182 143.878 38.6071 144.182 38.785C144.49 38.9629 144.726 39.2035 144.888 39.5069C145.055 39.8051 145.139 40.1373 145.139 40.5036ZM144.582 40.4879C144.587 40.1687 144.522 39.8967 144.386 39.6717C144.255 39.4468 144.074 39.2768 143.844 39.1617C143.614 39.0466 143.363 38.989 143.091 38.989C142.683 38.989 142.335 39.1198 142.047 39.3814C141.759 39.643 141.6 40.0118 141.568 40.4879H144.582ZM148.153 38.5025C148.666 38.5025 149.084 38.662 149.408 38.9812C149.733 39.2951 149.895 39.7528 149.895 40.3545V42.8656H149.353V40.4172C149.353 39.9516 149.236 39.5959 149 39.35C148.77 39.1041 148.454 38.9812 148.051 38.9812C147.638 38.9812 147.308 39.112 147.062 39.3735C146.816 39.6351 146.693 40.0196 146.693 40.5271V42.8656H146.144V38.581H146.693V39.3108C146.829 39.0492 147.025 38.8504 147.282 38.7144C147.538 38.5731 147.828 38.5025 148.153 38.5025ZM154.986 40.5036C154.986 40.6919 154.981 40.8358 154.971 40.9352H151.416C151.432 41.2595 151.51 41.5368 151.651 41.767C151.793 41.9972 151.978 42.1724 152.208 42.2928C152.439 42.4079 152.69 42.4654 152.962 42.4654C153.318 42.4654 153.616 42.3791 153.856 42.2064C154.102 42.0338 154.264 41.801 154.343 41.508H154.924C154.819 41.9265 154.594 42.2692 154.249 42.536C153.909 42.7976 153.48 42.9284 152.962 42.9284C152.559 42.9284 152.198 42.8395 151.879 42.6616C151.56 42.4785 151.309 42.2221 151.126 41.8925C150.948 41.5577 150.859 41.168 150.859 40.7233C150.859 40.2786 150.948 39.8888 151.126 39.554C151.303 39.2192 151.552 38.9629 151.871 38.785C152.19 38.6071 152.554 38.5182 152.962 38.5182C153.37 38.5182 153.726 38.6071 154.029 38.785C154.338 38.9629 154.573 39.2035 154.735 39.5069C154.903 39.8051 154.986 40.1373 154.986 40.5036ZM154.429 40.4879C154.435 40.1687 154.369 39.8967 154.233 39.6717C154.102 39.4468 153.922 39.2768 153.692 39.1617C153.461 39.0466 153.21 38.989 152.938 38.989C152.53 38.989 152.182 39.1198 151.895 39.3814C151.607 39.643 151.447 40.0118 151.416 40.4879H154.429ZM156.541 39.3421C156.661 39.0753 156.844 38.8687 157.09 38.7222C157.341 38.5757 157.647 38.5025 158.008 38.5025V39.0753H157.859C157.462 39.0753 157.142 39.1826 156.902 39.3971C156.661 39.6116 156.541 39.9699 156.541 40.4722V42.8656H155.991V38.581H156.541V39.3421ZM158.583 40.7154C158.583 40.276 158.67 39.8915 158.842 39.5619C159.02 39.2271 159.264 38.9707 159.572 38.7928C159.886 38.6097 160.239 38.5182 160.632 38.5182C161.04 38.5182 161.39 38.6123 161.683 38.8007C161.981 38.989 162.196 39.2297 162.327 39.5226V38.581H162.876V42.8656H162.327V41.9161C162.191 42.2091 161.974 42.4523 161.675 42.6459C161.382 42.8342 161.032 42.9284 160.624 42.9284C160.237 42.9284 159.886 42.8368 159.572 42.6537C159.264 42.4706 159.02 42.2117 158.842 41.8768C158.67 41.542 158.583 41.1549 158.583 40.7154ZM162.327 40.7233C162.327 40.378 162.256 40.0746 162.115 39.813C161.974 39.5514 161.78 39.35 161.534 39.2087C161.293 39.0675 161.027 38.9969 160.734 38.9969C160.43 38.9969 160.158 39.0649 159.918 39.2009C159.677 39.3369 159.486 39.5357 159.345 39.7973C159.209 40.0536 159.141 40.3597 159.141 40.7154C159.141 41.066 159.209 41.3746 159.345 41.6414C159.486 41.903 159.677 42.1044 159.918 42.2457C160.158 42.3817 160.43 42.4497 160.734 42.4497C161.027 42.4497 161.293 42.3791 161.534 42.2378C161.78 42.0966 161.974 41.8952 162.115 41.6336C162.256 41.372 162.327 41.0686 162.327 40.7233ZM164.844 39.0439V41.7042C164.844 41.9658 164.894 42.1463 164.993 42.2457C165.093 42.3451 165.268 42.3948 165.519 42.3948H166.021V42.8656H165.433C165.046 42.8656 164.758 42.7767 164.57 42.5988C164.381 42.4157 164.287 42.1175 164.287 41.7042V39.0439H163.691V38.581H164.287V37.5059H164.844V38.581H166.021V39.0439H164.844ZM167.202 37.7727C167.092 37.7727 166.998 37.7334 166.919 37.655C166.841 37.5765 166.802 37.4797 166.802 37.3646C166.802 37.2495 166.841 37.1553 166.919 37.0821C166.998 37.0036 167.092 36.9644 167.202 36.9644C167.312 36.9644 167.406 37.0036 167.484 37.0821C167.563 37.1553 167.602 37.2495 167.602 37.3646C167.602 37.4797 167.563 37.5765 167.484 37.655C167.406 37.7334 167.312 37.7727 167.202 37.7727ZM167.477 38.581V42.8656H166.927V38.581H167.477ZM170.596 42.9284C170.193 42.9284 169.83 42.8395 169.505 42.6616C169.186 42.4785 168.932 42.2221 168.744 41.8925C168.561 41.5577 168.469 41.168 168.469 40.7233C168.469 40.2786 168.564 39.8915 168.752 39.5619C168.94 39.2271 169.197 38.9707 169.521 38.7928C169.845 38.6097 170.209 38.5182 170.612 38.5182C171.015 38.5182 171.378 38.6097 171.702 38.7928C172.032 38.9707 172.288 39.2271 172.472 39.5619C172.66 39.8915 172.754 40.2786 172.754 40.7233C172.754 41.1627 172.66 41.5499 172.472 41.8847C172.283 42.2195 172.024 42.4785 171.695 42.6616C171.365 42.8395 170.999 42.9284 170.596 42.9284ZM170.596 42.4497C170.878 42.4497 171.14 42.3869 171.381 42.2614C171.621 42.1306 171.815 41.937 171.961 41.6807C172.113 41.4191 172.189 41.1 172.189 40.7233C172.189 40.3466 172.116 40.0301 171.969 39.7738C171.823 39.5122 171.629 39.3186 171.389 39.193C171.148 39.0623 170.886 38.9969 170.604 38.9969C170.321 38.9969 170.06 39.0623 169.819 39.193C169.578 39.3186 169.385 39.5122 169.238 39.7738C169.097 40.0301 169.027 40.3466 169.027 40.7233C169.027 41.1 169.097 41.4191 169.238 41.6807C169.385 41.937 169.576 42.1306 169.811 42.2614C170.052 42.3869 170.313 42.4497 170.596 42.4497ZM175.764 38.5025C176.277 38.5025 176.696 38.662 177.02 38.9812C177.344 39.2951 177.506 39.7528 177.506 40.3545V42.8656H176.965V40.4172C176.965 39.9516 176.847 39.5959 176.612 39.35C176.382 39.1041 176.065 38.9812 175.662 38.9812C175.249 38.9812 174.919 39.112 174.673 39.3735C174.428 39.6351 174.305 40.0196 174.305 40.5271V42.8656H173.755V38.581H174.305V39.3108C174.441 39.0492 174.637 38.8504 174.893 38.7144C175.15 38.5731 175.44 38.5025 175.764 38.5025Z" fill="black"/>
<defs>
<linearGradient id="paint0_linear" x1="21.4294" y1="0.0615234" x2="21.4294" y2="31.9801" gradientUnits="userSpaceOnUse">
<stop stop-color="#02CAD7"/>
<stop offset="1" stop-color="#0024A3"/>
</linearGradient>
<linearGradient id="paint1_linear" x1="7.8076" y1="26.3084" x2="7.8076" y2="42.9203" gradientUnits="userSpaceOnUse">
<stop stop-color="#02CAD7"/>
<stop offset="1" stop-color="#0024A3"/>
</linearGradient>
<linearGradient id="paint2_linear" x1="35.051" y1="16.6734" x2="35.051" y2="0.0615118" gradientUnits="userSpaceOnUse">
<stop stop-color="#02CAD7"/>
<stop offset="1" stop-color="#0024A3"/>
</linearGradient>
<linearGradient id="paint3_linear" x1="21.4294" y1="10.9493" x2="21.4294" y2="42.9203" gradientUnits="userSpaceOnUse">
<stop stop-color="#02CAD7"/>
<stop offset="1" stop-color="#0024A3"/>
</linearGradient>
</defs>
</svg>
