<svg width="44" height="44" viewBox="0 0 44 44" fill="none" xmlns="http://www.w3.org/2000/svg">
<path fill-rule="evenodd" clip-rule="evenodd" d="M44 32.7685L0 7.90919L0 0L6.80301 0L44 21.0157V32.7685Z" fill="url(#paint0_linear)"/>
<path d="M0 26.9457L16.031 35.9845L0 44L0 26.9457Z" fill="url(#paint1_linear)"/>
<path d="M44 17.0543L27.969 8.01551L44 1.53032e-06V17.0543Z" fill="url(#paint2_linear)"/>
<path fill-rule="evenodd" clip-rule="evenodd" d="M37.2921 44L0 22.9306L0 11.1778L44 36.0371V44H37.2921Z" fill="url(#paint3_linear)"/>
<path fill-rule="evenodd" clip-rule="evenodd" d="M44 32.7685L0 7.90919L0 0L6.80301 0L44 21.0157V32.7685Z" fill="url(#paint4_linear)"/>
<path d="M0 26.9457L16.031 35.9845L0 44L0 26.9457Z" fill="url(#paint5_linear)"/>
<path d="M44 17.0543L27.969 8.01551L44 1.53032e-06V17.0543Z" fill="url(#paint6_linear)"/>
<path fill-rule="evenodd" clip-rule="evenodd" d="M37.2921 44L0 22.9306L0 11.1778L44 36.0371V44H37.2921Z" fill="url(#paint7_linear)"/>
<defs>
<linearGradient id="paint0_linear" x1="22" y1="0" x2="22" y2="32.7685" gradientUnits="userSpaceOnUse">
<stop stop-color="#02CAD7"/>
<stop offset="1" stop-color="#0024A3"/>
</linearGradient>
<linearGradient id="paint1_linear" x1="8.0155" y1="26.9457" x2="8.0155" y2="44" gradientUnits="userSpaceOnUse">
<stop stop-color="#02CAD7"/>
<stop offset="1" stop-color="#0024A3"/>
</linearGradient>
<linearGradient id="paint2_linear" x1="35.9845" y1="17.0543" x2="35.9845" y2="1.53032e-06" gradientUnits="userSpaceOnUse">
<stop stop-color="#02CAD7"/>
<stop offset="1" stop-color="#0024A3"/>
</linearGradient>
<linearGradient id="paint3_linear" x1="22" y1="11.1778" x2="22" y2="44" gradientUnits="userSpaceOnUse">
<stop stop-color="#02CAD7"/>
<stop offset="1" stop-color="#0024A3"/>
</linearGradient>
<linearGradient id="paint4_linear" x1="22" y1="0" x2="22" y2="32.7685" gradientUnits="userSpaceOnUse">
<stop stop-color="#02CAD7"/>
<stop offset="1" stop-color="#0024A3"/>
</linearGradient>
<linearGradient id="paint5_linear" x1="8.0155" y1="26.9457" x2="8.0155" y2="44" gradientUnits="userSpaceOnUse">
<stop stop-color="#02CAD7"/>
<stop offset="1" stop-color="#0024A3"/>
</linearGradient>
<linearGradient id="paint6_linear" x1="35.9845" y1="17.0543" x2="35.9845" y2="1.53032e-06" gradientUnits="userSpaceOnUse">
<stop stop-color="#02CAD7"/>
<stop offset="1" stop-color="#0024A3"/>
</linearGradient>
<linearGradient id="paint7_linear" x1="22" y1="11.1778" x2="22" y2="44" gradientUnits="userSpaceOnUse">
<stop stop-color="#02CAD7"/>
<stop offset="1" stop-color="#0024A3"/>
</linearGradient>
</defs>
</svg>
