<svg width="262" height="45" viewBox="0 0 262 45" fill="none" xmlns="http://www.w3.org/2000/svg">
<path fill-rule="evenodd" clip-rule="evenodd" d="M42.3736 32.1545L0 8.21401L0 0.596924L6.5511 0.596924L42.3736 20.8361V32.1545Z" fill="white"/>
<path d="M0 26.5466L15.4384 35.2513L0 42.9705L0 26.5466Z" fill="white"/>
<path d="M42.3735 17.021L26.9351 8.31634L42.3735 0.597126V17.021Z" fill="white"/>
<path fill-rule="evenodd" clip-rule="evenodd" d="M35.9139 42.9707L0 22.6799L0 11.3616L42.3736 35.302V42.9707H35.9139Z" fill="white"/>
<path d="M78.3874 29H74.0331L60.9319 9.17633V29H56.5776V2.41566L60.9319 2.41566L74.0331 22.2011V2.41566H78.3874V29ZM103.394 17.9614C103.394 18.7508 103.343 19.4638 103.242 20.1004H87.1612C87.2885 21.781 87.9124 23.1306 89.0328 24.1491C90.1532 25.1677 91.5282 25.677 93.1579 25.677C95.5006 25.677 97.1558 24.6966 98.1234 22.7359H102.821C102.185 24.6711 101.026 26.2626 99.3457 27.5104C97.6905 28.7326 95.6279 29.3438 93.1579 29.3438C91.1463 29.3438 89.3383 28.8982 87.7341 28.0069C86.1553 27.0902 84.9076 25.817 83.9909 24.1873C83.0997 22.5322 82.654 20.6224 82.654 18.4579C82.654 16.2935 83.0869 14.3964 83.9527 12.7667C84.8439 11.1116 86.0789 9.8384 87.6577 8.94716C89.2619 8.05592 91.0953 7.6103 93.1579 7.6103C95.1441 7.6103 96.9139 8.04319 98.4672 8.90896C100.02 9.77474 101.23 10.997 102.096 12.5758C102.962 14.1291 103.394 15.9243 103.394 17.9614ZM98.8491 16.5863C98.8236 14.9821 98.2507 13.6962 97.1303 12.7286C96.0099 11.7609 94.6221 11.2771 92.9669 11.2771C91.4646 11.2771 90.1786 11.7609 89.1092 12.7286C88.0397 13.6707 87.4031 14.9566 87.1994 16.5863H98.8491ZM116.694 18.3434L123.493 29H118.565L114.02 21.8574L109.742 29H105.197L111.996 18.6489L105.197 7.95407L110.124 7.95407L114.669 15.0967L118.947 7.95407H123.493L116.694 18.3434ZM131.82 11.5063V23.156C131.82 23.9454 131.998 24.5184 132.355 24.8749C132.737 25.2059 133.374 25.3714 134.265 25.3714H136.938V29H133.501C131.54 29 130.038 28.5417 128.994 27.625C127.95 26.7083 127.428 25.2186 127.428 23.156V11.5063H124.945V7.95407L127.428 7.95407V2.72123L131.82 2.72123V7.95407H136.938V11.5063L131.82 11.5063ZM165.283 2.87401V29H164.519V4.74561L153.709 29H152.945L142.098 4.74561V29H141.334V2.87401H142.098L153.327 28.0069L164.519 2.87401H165.283ZM170.816 18.6871C170.816 16.5227 171.236 14.6511 172.077 13.0723C172.917 11.4681 174.101 10.2458 175.629 9.40551C177.157 8.53974 178.901 8.10685 180.862 8.10685C183.23 8.10685 185.229 8.73071 186.858 9.97845C188.514 11.2007 189.621 12.7667 190.181 14.6765V8.37422H190.907V29H190.181V22.6977C189.621 24.6075 188.514 26.1862 186.858 27.434C185.229 28.6562 183.23 29.2674 180.862 29.2674C178.901 29.2674 177.157 28.8472 175.629 28.0069C174.101 27.1411 172.917 25.9189 172.077 24.3401C171.236 22.7359 170.816 20.8516 170.816 18.6871ZM190.181 18.6871C190.181 16.7264 189.774 15.0076 188.959 13.5307C188.17 12.0283 187.062 10.8697 185.636 10.0548C184.236 9.21453 182.644 8.79437 180.862 8.79437C178.977 8.79437 177.335 9.18907 175.934 9.97845C174.559 10.7678 173.49 11.9137 172.726 13.4161C171.962 14.893 171.58 16.65 171.58 18.6871C171.58 20.7242 171.962 22.494 172.726 23.9963C173.49 25.4733 174.559 26.6064 175.934 27.3958C177.335 28.1852 178.977 28.5799 180.862 28.5799C182.644 28.5799 184.236 28.1724 185.636 27.3576C187.062 26.5173 188.17 25.3587 188.959 23.8818C189.774 22.3794 190.181 20.6478 190.181 18.6871ZM198.161 13.3779C198.975 9.73654 201.687 7.91587 206.296 7.91587V8.75618H205.953C203.788 8.75618 201.942 9.39278 200.414 10.666C198.912 11.9137 198.161 13.9381 198.161 16.7391V29H197.397V8.37422L198.161 8.37422V13.3779ZM220.577 29L211.067 19.3364V29H210.303V0.73504L211.067 0.73504V17.8086L220.386 8.37422H221.494L211.334 18.6107L221.647 29H220.577ZM234.348 28.5799C236.665 28.5799 238.613 27.9942 240.192 26.8228C241.771 25.6515 242.726 24.0473 243.057 22.0102H243.821C243.464 24.1746 242.446 25.9316 240.765 27.2812C239.11 28.6053 236.971 29.2674 234.348 29.2674C232.438 29.2674 230.732 28.8472 229.23 28.0069C227.728 27.1666 226.543 25.9443 225.678 24.3401C224.837 22.7359 224.417 20.8516 224.417 18.6871C224.417 16.5227 224.837 14.6383 225.678 13.0341C226.543 11.4299 227.728 10.2076 229.23 9.36731C230.732 8.527 232.438 8.10685 234.348 8.10685C236.36 8.10685 238.079 8.53974 239.505 9.40551C240.931 10.2458 242 11.3408 242.713 12.6904C243.452 14.0399 243.821 15.4659 243.821 16.9683C243.821 17.885 243.808 18.5725 243.783 19.0309H225.181C225.207 21.1444 225.64 22.9141 226.48 24.3401C227.346 25.7661 228.466 26.8356 229.841 27.5486C231.216 28.2361 232.719 28.5799 234.348 28.5799ZM234.348 8.79437C232.719 8.79437 231.216 9.15087 229.841 9.86386C228.466 10.5514 227.346 11.6081 226.48 13.0341C225.64 14.4601 225.207 16.2298 225.181 18.3434H243.133C243.261 16.2298 242.917 14.4601 242.102 13.0341C241.313 11.6081 240.218 10.5514 238.817 9.86386C237.442 9.15087 235.952 8.79437 234.348 8.79437ZM250.999 9.13814V23.5762C250.999 24.8239 251.139 25.7788 251.419 26.4409C251.699 27.1029 252.145 27.574 252.756 27.8541C253.367 28.1088 254.22 28.2361 255.315 28.2361H257.492V29H255.239C253.456 29 252.17 28.5926 251.381 27.7777C250.617 26.9629 250.235 25.5624 250.235 23.5762V9.13814H246.874V8.37422H250.235V3.10318H250.999V8.37422H257.492V9.13814H250.999Z" fill="white"/>
<path d="M59.894 36.4015V36.8515H58.3889V41.8247H57.8458V36.8515H56.3329V36.4015H59.894ZM62.7688 37.511C63.0895 37.511 63.3766 37.5782 63.63 37.7127C63.8886 37.8472 64.0903 38.0541 64.2352 38.3334C64.3852 38.6075 64.4602 38.9437 64.4602 39.342V41.8247H63.9248V39.404C63.9248 38.9437 63.8085 38.592 63.5757 38.3489C63.3481 38.1058 63.0352 37.9842 62.6369 37.9842C62.2283 37.9842 61.9024 38.1135 61.6593 38.3722C61.4162 38.6308 61.2947 39.0109 61.2947 39.5127V41.8247H60.7516V36.0834H61.2947V38.3101C61.4292 38.0566 61.6257 37.8601 61.8843 37.7204C62.1481 37.5808 62.4429 37.511 62.7688 37.511ZM69.494 39.4894C69.494 39.6756 69.4888 39.8178 69.4785 39.9161H65.9639C65.9794 40.2368 66.057 40.5109 66.1966 40.7385C66.3363 40.9661 66.5199 41.1394 66.7475 41.2583C66.9751 41.3721 67.2233 41.429 67.4923 41.429C67.844 41.429 68.1389 41.3437 68.3768 41.173C68.6199 41.0023 68.7802 40.7721 68.8578 40.4825H69.4319C69.3285 40.8963 69.1061 41.2351 68.7647 41.4989C68.4285 41.7575 68.0044 41.8868 67.4923 41.8868C67.094 41.8868 66.7371 41.7988 66.4216 41.623C66.1061 41.442 65.8578 41.1885 65.6768 40.8627C65.5009 40.5316 65.413 40.1463 65.413 39.7066C65.413 39.267 65.5009 38.8816 65.6768 38.5506C65.8527 38.2196 66.0984 37.9661 66.4139 37.7903C66.7294 37.6144 67.0889 37.5265 67.4923 37.5265C67.8958 37.5265 68.2475 37.6144 68.5475 37.7903C68.8526 37.9661 69.0854 38.2041 69.2457 38.5041C69.4113 38.7989 69.494 39.1273 69.494 39.4894ZM68.9432 39.4739C68.9483 39.1584 68.8837 38.8894 68.7492 38.667C68.6199 38.4446 68.4414 38.2765 68.2139 38.1627C67.9863 38.0489 67.738 37.992 67.469 37.992C67.0656 37.992 66.7216 38.1213 66.4371 38.3799C66.1527 38.6385 65.9949 39.0032 65.9639 39.4739H68.9432ZM73.1598 36.0834V41.8247H72.6167V36.0834H73.1598ZM74.1414 39.6989C74.1414 39.2644 74.2267 38.8842 74.3974 38.5584C74.5733 38.2273 74.8138 37.9739 75.119 37.798C75.4293 37.617 75.7784 37.5265 76.1664 37.5265C76.5698 37.5265 76.9163 37.6196 77.206 37.8058C77.5008 37.992 77.7129 38.2299 77.8422 38.5196V37.5885H78.3853V41.8247H77.8422V40.8859C77.7077 41.1756 77.4931 41.4161 77.1982 41.6075C76.9086 41.7937 76.562 41.8868 76.1586 41.8868C75.7758 41.8868 75.4293 41.7963 75.119 41.6152C74.8138 41.4342 74.5733 41.1782 74.3974 40.8471C74.2267 40.5161 74.1414 40.1333 74.1414 39.6989ZM77.8422 39.7066C77.8422 39.3653 77.7724 39.0653 77.6327 38.8066C77.4931 38.548 77.3017 38.3489 77.0586 38.2092C76.8207 38.0696 76.5569 37.9997 76.2672 37.9997C75.9672 37.9997 75.6983 38.067 75.4603 38.2015C75.2224 38.336 75.0336 38.5325 74.894 38.7911C74.7595 39.0446 74.6922 39.3471 74.6922 39.6989C74.6922 40.0454 74.7595 40.3506 74.894 40.6144C75.0336 40.873 75.2224 41.0721 75.4603 41.2118C75.6983 41.3463 75.9672 41.4135 76.2672 41.4135C76.5569 41.4135 76.8207 41.3437 77.0586 41.204C77.3017 41.0644 77.4931 40.8652 77.6327 40.6066C77.7724 40.348 77.8422 40.048 77.8422 39.7066ZM80.3312 38.0463V40.6764C80.3312 40.9351 80.3803 41.1135 80.4786 41.2118C80.5769 41.3101 80.7501 41.3592 80.9984 41.3592H81.495V41.8247H80.9131C80.5303 41.8247 80.2458 41.7368 80.0596 41.5609C79.8734 41.3799 79.7803 41.0851 79.7803 40.6764V38.0463H79.1907V37.5885H79.7803V36.5256H80.3312V37.5885H81.495V38.0463H80.3312ZM86.2234 39.4894C86.2234 39.6756 86.2182 39.8178 86.2079 39.9161H82.6932C82.7087 40.2368 82.7863 40.5109 82.926 40.7385C83.0656 40.9661 83.2493 41.1394 83.4768 41.2583C83.7044 41.3721 83.9527 41.429 84.2217 41.429C84.5734 41.429 84.8682 41.3437 85.1061 41.173C85.3492 41.0023 85.5096 40.7721 85.5872 40.4825H86.1613C86.0579 40.8963 85.8354 41.2351 85.4941 41.4989C85.1579 41.7575 84.7337 41.8868 84.2217 41.8868C83.8234 41.8868 83.4665 41.7988 83.151 41.623C82.8355 41.442 82.5872 41.1885 82.4062 40.8627C82.2303 40.5316 82.1424 40.1463 82.1424 39.7066C82.1424 39.267 82.2303 38.8816 82.4062 38.5506C82.582 38.2196 82.8277 37.9661 83.1432 37.7903C83.4587 37.6144 83.8182 37.5265 84.2217 37.5265C84.6251 37.5265 84.9768 37.6144 85.2768 37.7903C85.582 37.9661 85.8148 38.2041 85.9751 38.5041C86.1406 38.7989 86.2234 39.1273 86.2234 39.4894ZM85.6725 39.4739C85.6777 39.1584 85.613 38.8894 85.4785 38.667C85.3492 38.4446 85.1708 38.2765 84.9432 38.1627C84.7156 38.0489 84.4674 37.992 84.1984 37.992C83.7949 37.992 83.451 38.1213 83.1665 38.3799C82.882 38.6385 82.7243 39.0032 82.6932 39.4739H85.6725ZM88.6756 41.8868C88.1894 41.8868 87.7911 41.7756 87.4808 41.5532C87.1756 41.3256 87.0049 41.0178 86.9687 40.6299H87.5273C87.5532 40.8678 87.6644 41.0618 87.861 41.2118C88.0627 41.3566 88.3317 41.429 88.6679 41.429C88.9627 41.429 89.1929 41.3592 89.3584 41.2195C89.5291 41.0799 89.6144 40.9066 89.6144 40.6997C89.6144 40.5549 89.5678 40.4359 89.4747 40.3428C89.3816 40.2497 89.2627 40.1773 89.1179 40.1256C88.9782 40.0687 88.7868 40.0092 88.5437 39.9471C88.2282 39.8644 87.9722 39.7816 87.7756 39.6989C87.5791 39.6161 87.411 39.4946 87.2713 39.3342C87.1368 39.1687 87.0696 38.9489 87.0696 38.6747C87.0696 38.4678 87.1317 38.2765 87.2558 38.1006C87.3799 37.9247 87.5558 37.7851 87.7834 37.6816C88.011 37.5782 88.2696 37.5265 88.5592 37.5265C89.0144 37.5265 89.3816 37.6429 89.6609 37.8756C89.9403 38.1032 90.0903 38.4187 90.1109 38.8222H89.5678C89.5523 38.5739 89.4541 38.3747 89.273 38.2247C89.0972 38.0696 88.8541 37.992 88.5437 37.992C88.2696 37.992 88.0472 38.0566 87.8765 38.186C87.7058 38.3153 87.6205 38.4756 87.6205 38.667C87.6205 38.8325 87.6696 38.9696 87.7679 39.0782C87.8713 39.1816 87.998 39.2644 88.148 39.3265C88.298 39.3834 88.4998 39.448 88.7532 39.5204C89.0584 39.6032 89.3015 39.6834 89.4825 39.7609C89.6635 39.8385 89.8187 39.9523 89.948 40.1023C90.0773 40.2523 90.1446 40.4514 90.1497 40.6997C90.1497 40.9273 90.0877 41.1316 89.9635 41.3126C89.8394 41.4885 89.6661 41.6282 89.4437 41.7316C89.2213 41.8351 88.9653 41.8868 88.6756 41.8868ZM91.8781 38.0463V40.6764C91.8781 40.9351 91.9272 41.1135 92.0255 41.2118C92.1238 41.3101 92.297 41.3592 92.5453 41.3592H93.0419V41.8247H92.46C92.0772 41.8247 91.7927 41.7368 91.6065 41.5609C91.4203 41.3799 91.3272 41.0851 91.3272 40.6764V38.0463H90.7376V37.5885H91.3272V36.5256H91.8781V37.5885H93.0419V38.0463H91.8781ZM97.5252 41.8868C97.039 41.8868 96.6407 41.7756 96.3304 41.5532C96.0252 41.3256 95.8545 41.0178 95.8183 40.6299H96.3769C96.4028 40.8678 96.514 41.0618 96.7106 41.2118C96.9123 41.3566 97.1812 41.429 97.5174 41.429C97.8123 41.429 98.0424 41.3592 98.208 41.2195C98.3786 41.0799 98.464 40.9066 98.464 40.6997C98.464 40.5549 98.4174 40.4359 98.3243 40.3428C98.2312 40.2497 98.1123 40.1773 97.9674 40.1256C97.8278 40.0687 97.6364 40.0092 97.3933 39.9471C97.0778 39.8644 96.8218 39.7816 96.6252 39.6989C96.4287 39.6161 96.2606 39.4946 96.1209 39.3342C95.9864 39.1687 95.9192 38.9489 95.9192 38.6747C95.9192 38.4678 95.9813 38.2765 96.1054 38.1006C96.2295 37.9247 96.4054 37.7851 96.633 37.6816C96.8606 37.5782 97.1192 37.5265 97.4088 37.5265C97.864 37.5265 98.2312 37.6429 98.5105 37.8756C98.7898 38.1032 98.9398 38.4187 98.9605 38.8222H98.4174C98.4019 38.5739 98.3036 38.3747 98.1226 38.2247C97.9468 38.0696 97.7037 37.992 97.3933 37.992C97.1192 37.992 96.8968 38.0566 96.7261 38.186C96.5554 38.3153 96.47 38.4756 96.47 38.667C96.47 38.8325 96.5192 38.9696 96.6175 39.0782C96.7209 39.1816 96.8476 39.2644 96.9976 39.3265C97.1476 39.3834 97.3493 39.448 97.6028 39.5204C97.908 39.6032 98.1511 39.6834 98.3321 39.7609C98.5131 39.8385 98.6683 39.9523 98.7976 40.1023C98.9269 40.2523 98.9942 40.4514 98.9993 40.6997C98.9993 40.9273 98.9373 41.1316 98.8131 41.3126C98.689 41.4885 98.5157 41.6282 98.2933 41.7316C98.0709 41.8351 97.8149 41.8868 97.5252 41.8868ZM102.039 37.511C102.36 37.511 102.647 37.5782 102.9 37.7127C103.159 37.8472 103.36 38.0541 103.505 38.3334C103.655 38.6075 103.73 38.9437 103.73 39.342V41.8247H103.195V39.404C103.195 38.9437 103.079 38.592 102.846 38.3489C102.618 38.1058 102.305 37.9842 101.907 37.9842C101.498 37.9842 101.172 38.1135 100.929 38.3722C100.686 38.6308 100.565 39.0109 100.565 39.5127V41.8247H100.022V36.0834H100.565V38.3101C100.699 38.0566 100.896 37.8601 101.154 37.7204C101.418 37.5808 101.713 37.511 102.039 37.511ZM106.786 41.8868C106.387 41.8868 106.028 41.7988 105.707 41.623C105.392 41.442 105.141 41.1885 104.955 40.8627C104.774 40.5316 104.683 40.1463 104.683 39.7066C104.683 39.267 104.776 38.8842 104.962 38.5584C105.149 38.2273 105.402 37.9739 105.723 37.798C106.043 37.617 106.403 37.5265 106.801 37.5265C107.199 37.5265 107.559 37.617 107.88 37.798C108.205 37.9739 108.459 38.2273 108.64 38.5584C108.826 38.8842 108.919 39.267 108.919 39.7066C108.919 40.1411 108.826 40.5239 108.64 40.8549C108.454 41.1859 108.198 41.442 107.872 41.623C107.546 41.7988 107.184 41.8868 106.786 41.8868ZM106.786 41.4135C107.065 41.4135 107.324 41.3514 107.561 41.2273C107.799 41.098 107.991 40.9066 108.136 40.6532C108.286 40.3946 108.361 40.079 108.361 39.7066C108.361 39.3342 108.288 39.0213 108.143 38.7678C107.999 38.5092 107.807 38.3178 107.569 38.1937C107.331 38.0644 107.073 37.9997 106.793 37.9997C106.514 37.9997 106.255 38.0644 106.018 38.1937C105.78 38.3178 105.588 38.5092 105.443 38.7678C105.304 39.0213 105.234 39.3342 105.234 39.7066C105.234 40.079 105.304 40.3946 105.443 40.6532C105.588 40.9066 105.777 41.098 106.01 41.2273C106.248 41.3514 106.506 41.4135 106.786 41.4135ZM110.445 38.5196C110.579 38.2351 110.791 37.9997 111.081 37.8135C111.376 37.6222 111.725 37.5265 112.128 37.5265C112.511 37.5265 112.855 37.617 113.16 37.798C113.47 37.9739 113.711 38.2273 113.882 38.5584C114.057 38.8842 114.145 39.2644 114.145 39.6989C114.145 40.1333 114.057 40.5161 113.882 40.8471C113.711 41.1782 113.47 41.4342 113.16 41.6152C112.855 41.7963 112.511 41.8868 112.128 41.8868C111.73 41.8868 111.383 41.7937 111.089 41.6075C110.794 41.4161 110.579 41.1782 110.445 40.8937V43.8264H109.909V37.5885H110.445V38.5196ZM113.595 39.6989C113.595 39.3471 113.525 39.0446 113.385 38.7911C113.251 38.5325 113.064 38.336 112.826 38.2015C112.589 38.067 112.32 37.9997 112.02 37.9997C111.73 37.9997 111.464 38.0696 111.22 38.2092C110.982 38.3489 110.794 38.548 110.654 38.8066C110.514 39.0653 110.445 39.3653 110.445 39.7066C110.445 40.048 110.514 40.348 110.654 40.6066C110.794 40.8652 110.982 41.0644 111.22 41.204C111.464 41.3437 111.73 41.4135 112.02 41.4135C112.32 41.4135 112.589 41.3463 112.826 41.2118C113.064 41.0721 113.251 40.873 113.385 40.6144C113.525 40.3506 113.595 40.0454 113.595 39.6989ZM115.68 38.5196C115.815 38.2351 116.027 37.9997 116.316 37.8135C116.611 37.6222 116.96 37.5265 117.364 37.5265C117.746 37.5265 118.09 37.617 118.396 37.798C118.706 37.9739 118.946 38.2273 119.117 38.5584C119.293 38.8842 119.381 39.2644 119.381 39.6989C119.381 40.1333 119.293 40.5161 119.117 40.8471C118.946 41.1782 118.706 41.4342 118.396 41.6152C118.09 41.7963 117.746 41.8868 117.364 41.8868C116.965 41.8868 116.619 41.7937 116.324 41.6075C116.029 41.4161 115.815 41.1782 115.68 40.8937V43.8264H115.145V37.5885H115.68V38.5196ZM118.83 39.6989C118.83 39.3471 118.76 39.0446 118.621 38.7911C118.486 38.5325 118.3 38.336 118.062 38.2015C117.824 38.067 117.555 37.9997 117.255 37.9997C116.965 37.9997 116.699 38.0696 116.456 38.2092C116.218 38.3489 116.029 38.548 115.89 38.8066C115.75 39.0653 115.68 39.3653 115.68 39.7066C115.68 40.048 115.75 40.348 115.89 40.6066C116.029 40.8652 116.218 41.0644 116.456 41.204C116.699 41.3437 116.965 41.4135 117.255 41.4135C117.555 41.4135 117.824 41.3463 118.062 41.2118C118.3 41.0721 118.486 40.873 118.621 40.6144C118.76 40.3506 118.83 40.0454 118.83 39.6989ZM120.652 36.7894C120.543 36.7894 120.45 36.7506 120.372 36.673C120.295 36.5955 120.256 36.4998 120.256 36.386C120.256 36.2722 120.295 36.1791 120.372 36.1067C120.45 36.0291 120.543 35.9903 120.652 35.9903C120.76 35.9903 120.854 36.0291 120.931 36.1067C121.009 36.1791 121.047 36.2722 121.047 36.386C121.047 36.4998 121.009 36.5955 120.931 36.673C120.854 36.7506 120.76 36.7894 120.652 36.7894ZM120.923 37.5885V41.8247H120.38V37.5885H120.923ZM124.139 37.511C124.646 37.511 125.06 37.6687 125.381 37.9842C125.701 38.2946 125.862 38.7472 125.862 39.342V41.8247H125.326V39.404C125.326 38.9437 125.21 38.592 124.977 38.3489C124.75 38.1058 124.437 37.9842 124.039 37.9842C123.63 37.9842 123.304 38.1135 123.061 38.3722C122.818 38.6308 122.696 39.0109 122.696 39.5127V41.8247H122.153V37.5885H122.696V38.3101C122.831 38.0515 123.025 37.8549 123.278 37.7204C123.532 37.5808 123.819 37.511 124.139 37.511ZM128.84 37.5265C129.238 37.5265 129.584 37.6196 129.879 37.8058C130.174 37.992 130.386 38.2273 130.515 38.5118V37.5885H131.059V41.9333C131.059 42.3213 130.973 42.6652 130.803 42.9652C130.637 43.2652 130.404 43.4954 130.104 43.6557C129.804 43.8212 129.463 43.904 129.08 43.904C128.537 43.904 128.084 43.7747 127.722 43.5161C127.365 43.2575 127.143 42.9057 127.055 42.4609H127.59C127.684 42.7557 127.859 42.9911 128.118 43.1669C128.382 43.3428 128.703 43.4307 129.08 43.4307C129.354 43.4307 129.6 43.3712 129.817 43.2523C130.034 43.1385 130.205 42.9678 130.329 42.7402C130.453 42.5126 130.515 42.2437 130.515 41.9333V40.8859C130.381 41.1756 130.166 41.4161 129.871 41.6075C129.582 41.7937 129.238 41.8868 128.84 41.8868C128.452 41.8868 128.103 41.7963 127.792 41.6152C127.487 41.4342 127.247 41.1782 127.071 40.8471C126.9 40.5161 126.815 40.1333 126.815 39.6989C126.815 39.2644 126.9 38.8842 127.071 38.5584C127.247 38.2273 127.487 37.9739 127.792 37.798C128.103 37.617 128.452 37.5265 128.84 37.5265ZM130.515 39.7066C130.515 39.3653 130.446 39.0653 130.306 38.8066C130.166 38.548 129.975 38.3489 129.732 38.2092C129.494 38.0696 129.23 37.9997 128.94 37.9997C128.64 37.9997 128.371 38.067 128.134 38.2015C127.896 38.336 127.707 38.5325 127.567 38.7911C127.433 39.0446 127.365 39.3471 127.365 39.6989C127.365 40.0454 127.433 40.3506 127.567 40.6144C127.707 40.873 127.896 41.0721 128.134 41.2118C128.371 41.3463 128.64 41.4135 128.94 41.4135C129.23 41.4135 129.494 41.3437 129.732 41.204C129.975 41.0644 130.166 40.8652 130.306 40.6066C130.446 40.348 130.515 40.048 130.515 39.7066ZM136.204 37.5265C136.602 37.5265 136.949 37.6196 137.244 37.8058C137.539 37.992 137.751 38.2273 137.88 38.5118V37.5885H138.423V41.9333C138.423 42.3213 138.338 42.6652 138.167 42.9652C138.002 43.2652 137.769 43.4954 137.469 43.6557C137.169 43.8212 136.827 43.904 136.445 43.904C135.902 43.904 135.449 43.7747 135.087 43.5161C134.73 43.2575 134.508 42.9057 134.42 42.4609H134.955C135.048 42.7557 135.224 42.9911 135.483 43.1669C135.746 43.3428 136.067 43.4307 136.445 43.4307C136.719 43.4307 136.964 43.3712 137.182 43.2523C137.399 43.1385 137.57 42.9678 137.694 42.7402C137.818 42.5126 137.88 42.2437 137.88 41.9333V40.8859C137.746 41.1756 137.531 41.4161 137.236 41.6075C136.946 41.7937 136.602 41.8868 136.204 41.8868C135.816 41.8868 135.467 41.7963 135.157 41.6152C134.852 41.4342 134.611 41.1782 134.435 40.8471C134.265 40.5161 134.179 40.1333 134.179 39.6989C134.179 39.2644 134.265 38.8842 134.435 38.5584C134.611 38.2273 134.852 37.9739 135.157 37.798C135.467 37.617 135.816 37.5265 136.204 37.5265ZM137.88 39.7066C137.88 39.3653 137.81 39.0653 137.671 38.8066C137.531 38.548 137.339 38.3489 137.096 38.2092C136.858 38.0696 136.595 37.9997 136.305 37.9997C136.005 37.9997 135.736 38.067 135.498 38.2015C135.26 38.336 135.071 38.5325 134.932 38.7911C134.797 39.0446 134.73 39.3471 134.73 39.6989C134.73 40.0454 134.797 40.3506 134.932 40.6144C135.071 40.873 135.26 41.0721 135.498 41.2118C135.736 41.3463 136.005 41.4135 136.305 41.4135C136.595 41.4135 136.858 41.3437 137.096 41.204C137.339 41.0644 137.531 40.8652 137.671 40.6066C137.81 40.348 137.88 40.048 137.88 39.7066ZM143.496 39.4894C143.496 39.6756 143.49 39.8178 143.48 39.9161H139.966C139.981 40.2368 140.059 40.5109 140.198 40.7385C140.338 40.9661 140.522 41.1394 140.749 41.2583C140.977 41.3721 141.225 41.429 141.494 41.429C141.846 41.429 142.141 41.3437 142.378 41.173C142.622 41.0023 142.782 40.7721 142.859 40.4825H143.434C143.33 40.8963 143.108 41.2351 142.766 41.4989C142.43 41.7575 142.006 41.8868 141.494 41.8868C141.096 41.8868 140.739 41.7988 140.423 41.623C140.108 41.442 139.859 41.1885 139.678 40.8627C139.503 40.5316 139.415 40.1463 139.415 39.7066C139.415 39.267 139.503 38.8816 139.678 38.5506C139.854 38.2196 140.1 37.9661 140.416 37.7903C140.731 37.6144 141.091 37.5265 141.494 37.5265C141.897 37.5265 142.249 37.6144 142.549 37.7903C142.854 37.9661 143.087 38.2041 143.247 38.5041C143.413 38.7989 143.496 39.1273 143.496 39.4894ZM142.945 39.4739C142.95 39.1584 142.885 38.8894 142.751 38.667C142.622 38.4446 142.443 38.2765 142.216 38.1627C141.988 38.0489 141.74 37.992 141.471 37.992C141.067 37.992 140.723 38.1213 140.439 38.3799C140.154 38.6385 139.997 39.0032 139.966 39.4739H142.945ZM146.475 37.511C146.982 37.511 147.396 37.6687 147.717 37.9842C148.038 38.2946 148.198 38.7472 148.198 39.342V41.8247H147.663V39.404C147.663 38.9437 147.546 38.592 147.313 38.3489C147.086 38.1058 146.773 37.9842 146.375 37.9842C145.966 37.9842 145.64 38.1135 145.397 38.3722C145.154 38.6308 145.032 39.0109 145.032 39.5127V41.8247H144.489V37.5885H145.032V38.3101C145.167 38.0515 145.361 37.8549 145.614 37.7204C145.868 37.5808 146.155 37.511 146.475 37.511ZM153.232 39.4894C153.232 39.6756 153.227 39.8178 153.216 39.9161H149.702C149.717 40.2368 149.795 40.5109 149.934 40.7385C150.074 40.9661 150.258 41.1394 150.485 41.2583C150.713 41.3721 150.961 41.429 151.23 41.429C151.582 41.429 151.877 41.3437 152.114 41.173C152.358 41.0023 152.518 40.7721 152.596 40.4825H153.17C153.066 40.8963 152.844 41.2351 152.502 41.4989C152.166 41.7575 151.742 41.8868 151.23 41.8868C150.832 41.8868 150.475 41.7988 150.159 41.623C149.844 41.442 149.596 41.1885 149.415 40.8627C149.239 40.5316 149.151 40.1463 149.151 39.7066C149.151 39.267 149.239 38.8816 149.415 38.5506C149.59 38.2196 149.836 37.9661 150.152 37.7903C150.467 37.6144 150.827 37.5265 151.23 37.5265C151.633 37.5265 151.985 37.6144 152.285 37.7903C152.59 37.9661 152.823 38.2041 152.983 38.5041C153.149 38.7989 153.232 39.1273 153.232 39.4894ZM152.681 39.4739C152.686 39.1584 152.621 38.8894 152.487 38.667C152.358 38.4446 152.179 38.2765 151.952 38.1627C151.724 38.0489 151.476 37.992 151.207 37.992C150.803 37.992 150.459 38.1213 150.175 38.3799C149.89 38.6385 149.733 39.0032 149.702 39.4739H152.681ZM154.768 38.3411C154.887 38.0773 155.068 37.873 155.312 37.7282C155.56 37.5834 155.862 37.511 156.219 37.511V38.0773H156.072C155.679 38.0773 155.363 38.1834 155.125 38.3954C154.887 38.6075 154.768 38.9618 154.768 39.4584V41.8247H154.225V37.5885H154.768V38.3411ZM156.788 39.6989C156.788 39.2644 156.873 38.8842 157.044 38.5584C157.22 38.2273 157.46 37.9739 157.766 37.798C158.076 37.617 158.425 37.5265 158.813 37.5265C159.216 37.5265 159.563 37.6196 159.853 37.8058C160.147 37.992 160.36 38.2299 160.489 38.5196V37.5885H161.032V41.8247H160.489V40.8859C160.354 41.1756 160.14 41.4161 159.845 41.6075C159.555 41.7937 159.209 41.8868 158.805 41.8868C158.423 41.8868 158.076 41.7963 157.766 41.6152C157.46 41.4342 157.22 41.1782 157.044 40.8471C156.873 40.5161 156.788 40.1333 156.788 39.6989ZM160.489 39.7066C160.489 39.3653 160.419 39.0653 160.279 38.8066C160.14 38.548 159.948 38.3489 159.705 38.2092C159.467 38.0696 159.204 37.9997 158.914 37.9997C158.614 37.9997 158.345 38.067 158.107 38.2015C157.869 38.336 157.68 38.5325 157.541 38.7911C157.406 39.0446 157.339 39.3471 157.339 39.6989C157.339 40.0454 157.406 40.3506 157.541 40.6144C157.68 40.873 157.869 41.0721 158.107 41.2118C158.345 41.3463 158.614 41.4135 158.914 41.4135C159.204 41.4135 159.467 41.3437 159.705 41.204C159.948 41.0644 160.14 40.8652 160.279 40.6066C160.419 40.348 160.489 40.048 160.489 39.7066ZM162.978 38.0463V40.6764C162.978 40.9351 163.027 41.1135 163.125 41.2118C163.224 41.3101 163.397 41.3592 163.645 41.3592H164.142V41.8247H163.56C163.177 41.8247 162.893 41.7368 162.706 41.5609C162.52 41.3799 162.427 41.0851 162.427 40.6764V38.0463H161.837V37.5885H162.427V36.5256H162.978V37.5885H164.142V38.0463H162.978ZM165.309 36.7894C165.2 36.7894 165.107 36.7506 165.03 36.673C164.952 36.5955 164.913 36.4998 164.913 36.386C164.913 36.2722 164.952 36.1791 165.03 36.1067C165.107 36.0291 165.2 35.9903 165.309 35.9903C165.417 35.9903 165.511 36.0291 165.588 36.1067C165.666 36.1791 165.705 36.2722 165.705 36.386C165.705 36.4998 165.666 36.5955 165.588 36.673C165.511 36.7506 165.417 36.7894 165.309 36.7894ZM165.58 37.5885V41.8247H165.037V37.5885H165.58ZM168.665 41.8868C168.266 41.8868 167.907 41.7988 167.586 41.623C167.271 41.442 167.02 41.1885 166.834 40.8627C166.653 40.5316 166.562 40.1463 166.562 39.7066C166.562 39.267 166.655 38.8842 166.841 38.5584C167.028 38.2273 167.281 37.9739 167.602 37.798C167.922 37.617 168.282 37.5265 168.68 37.5265C169.078 37.5265 169.438 37.617 169.759 37.798C170.084 37.9739 170.338 38.2273 170.519 38.5584C170.705 38.8842 170.798 39.267 170.798 39.7066C170.798 40.1411 170.705 40.5239 170.519 40.8549C170.333 41.1859 170.077 41.442 169.751 41.623C169.425 41.7988 169.063 41.8868 168.665 41.8868ZM168.665 41.4135C168.944 41.4135 169.202 41.3514 169.44 41.2273C169.678 41.098 169.87 40.9066 170.015 40.6532C170.165 40.3946 170.24 40.079 170.24 39.7066C170.24 39.3342 170.167 39.0213 170.022 38.7678C169.877 38.5092 169.686 38.3178 169.448 38.1937C169.21 38.0644 168.952 37.9997 168.672 37.9997C168.393 37.9997 168.134 38.0644 167.896 38.1937C167.659 38.3178 167.467 38.5092 167.322 38.7678C167.183 39.0213 167.113 39.3342 167.113 39.7066C167.113 40.079 167.183 40.3946 167.322 40.6532C167.467 40.9066 167.656 41.098 167.889 41.2273C168.127 41.3514 168.385 41.4135 168.665 41.4135ZM173.774 37.511C174.281 37.511 174.695 37.6687 175.016 37.9842C175.336 38.2946 175.497 38.7472 175.497 39.342V41.8247H174.961V39.404C174.961 38.9437 174.845 38.592 174.612 38.3489C174.385 38.1058 174.072 37.9842 173.673 37.9842C173.265 37.9842 172.939 38.1135 172.696 38.3722C172.453 38.6308 172.331 39.0109 172.331 39.5127V41.8247H171.788V37.5885H172.331V38.3101C172.466 38.0515 172.66 37.8549 172.913 37.7204C173.167 37.5808 173.454 37.511 173.774 37.511Z" fill="white"/>
</svg>
